<?xml version="1.0" encoding="utf-8"?>
<!-- Generator: Adobe Illustrator 16.0.0, SVG Export Plug-In . SVG Version: 6.00 Build 0)  -->
<!DOCTYPE svg PUBLIC "-//W3C//DTD SVG 1.1//EN" "http://www.w3.org/Graphics/SVG/1.1/DTD/svg11.dtd">
<svg version="1.1" xmlns="http://www.w3.org/2000/svg" xmlns:xlink="http://www.w3.org/1999/xlink" x="0px" y="0px" width="1700px"
	 height="580px" viewBox="0 0 1700 580" enable-background="new 0 0 1700 580" xml:space="preserve">
<g id="BACKGROUND">
	<rect fill="#B0D3F4" width="1700" height="580"/>
</g>
<g id="OBJECTS">
	<g id="OBJECTS_1_">
		<g>
			<g>
				<polygon fill="#F4F4F4" points="267.389,374.104 265.904,386.703 257.032,409.743 265.146,412.241 271.389,388.208 
					272.205,374.659 				"/>
				
					<linearGradient id="SVGID_1_" gradientUnits="userSpaceOnUse" x1="-182.8438" y1="54.7046" x2="-184.9368" y2="18.2271" gradientTransform="matrix(-1 0 0 -1 73.9873 502)">
					<stop  offset="0.0033" style="stop-color:#192B4F"/>
					<stop  offset="0.9896" style="stop-color:#2F487A"/>
				</linearGradient>
				<polygon fill="url(#SVGID_1_)" points="248.423,435.027 252.389,475.125 251.066,510.375 264.727,510.375 265.46,507.751 
					256.098,506.502 261.091,475.291 265.596,436.476 				"/>
				<polygon fill="#2F487A" points="243.91,434.58 240.805,468.735 219.893,496.515 222.391,509.623 228.632,509.623 
					224.887,506.814 224.264,498.388 244.236,475.915 262.34,435.652 				"/>
				<polygon fill="#F76D59" points="272.205,374.659 271.962,361.956 269.409,361.639 267.389,374.104 				"/>
				<g>
					<path fill="#F76D59" d="M247.373,392.257c-0.941,4.619-0.992,11.683,5.939,12.795c6.879,1.104,11.025-3.256,12.033-7.861
						c1.006-4.604-0.697-10.529-7.812-11.448C252.859,385.139,248.126,388.563,247.373,392.257z"/>
					<path fill="#1F1F89" d="M252.357,404.734c-4.948-1.331-6.828-6.104-6.113-10.921c0.874-5.895,6.686-9.079,11.291-8.072
						c0.277,0.062,0.527,0.175,0.792,0.26c0.093,0.715,0.053,1.452-0.15,2.037c-0.79,2.275-2.815,4.175-5.122,4.873
						C253.055,392.911,251.607,403.241,252.357,404.734z"/>
					<path fill="#F76D59" d="M251.782,393.698c-0.701-0.104-1.425,0.07-2.048,0.41c-2.002,1.093-1.299,4.096,0.471,5.046
						c0.57,0.308,1.216,0.456,1.861,0.519c0.558,0.054,1.154,0.036,1.635-0.258c0.463-0.283,0.753-0.798,0.857-1.331
						c0.104-0.534,0.043-1.086-0.074-1.615C254.218,395.257,253.049,393.885,251.782,393.698z"/>
					
						<ellipse transform="matrix(0.3497 0.9369 -0.9369 0.3497 535.6185 8.5178)" fill="#F7F5EF" cx="261.674" cy="390.065" rx="3.262" ry="2.461"/>
				</g>
				<circle fill="#8E574A" cx="270.846" cy="360.202" r="2.873"/>
				<path fill="#F7F5EF" d="M281.471,379.479l-4.361,1.441c-1.773,5.136-4.729,9.785-8.627,13.573l-8.162,7.93l-10.049,6.787
					l-7.467,27.691l23.354,2.202l0.771-30.513l8.672-10.838c3.563-4.456,5.978-9.72,7.022-15.331L281.471,379.479z"/>
				<path fill="#F7F5EF" d="M292.541,310.45h-32.549c-5.561,0-10.067,4.508-10.067,10.067v32.549c0,5.56,4.509,10.067,10.067,10.067
					h32.549c5.561,0,10.068-4.509,10.068-10.067v-32.549C302.609,314.958,298.102,310.45,292.541,310.45z"/>
				<circle fill="#F76D59" cx="285.199" cy="362.125" r="2.873"/>
				<polygon fill="#F76D59" points="276.652,382.439 282.396,384.479 287.016,363.438 283.721,362.689 				"/>
				<path fill="#F76D59" d="M289.029,330.202c0,7.38-13.361,26.964-13.361,26.964s-13.359-19.584-13.359-26.964
					c0-7.378,5.981-13.361,13.359-13.361C283.049,316.841,289.029,322.824,289.029,330.202z"/>
				<circle fill="#F7F5EF" cx="275.668" cy="329.088" r="6.402"/>
				
					<line opacity="0.5" fill="none" stroke="#0A5DE2" stroke-width="2" stroke-linecap="round" stroke-miterlimit="10" enable-background="new    " x1="208.634" y1="510.11" x2="312.009" y2="510.11"/>
			</g>
			<g>
				<path fill="#F7F5EF" d="M572.321,107.344H458.09c-6.45,0-11.682,5.23-11.682,11.683v273.161c0,6.45,5.23,11.683,11.682,11.683
					h114.231c6.453,0,11.683-5.231,11.683-11.683V119.027C584.004,112.574,578.774,107.344,572.321,107.344z"/>
				<path fill="#354D7E" d="M572.321,107.344H458.09c-6.45,0-11.682,5.23-11.682,11.683v11.836h137.596v-11.836
					C584.004,112.574,578.774,107.344,572.321,107.344z"/>
				<path fill="#354D7E" d="M446.408,377.29v14.896c0,6.451,5.23,11.684,11.682,11.684h114.231c6.453,0,11.683-5.231,11.683-11.684
					V377.29H446.408z"/>
				<path fill="#6AA3E6" d="M562.39,138.916h-32.549c-5.56,0-10.067,4.507-10.067,10.068v32.548c0,5.56,4.509,10.068,10.067,10.068
					h32.549c5.562,0,10.066-4.508,10.066-10.068v-32.548C572.456,143.423,567.95,138.916,562.39,138.916z"/>
				<path fill="#6AA3E6" d="M562.39,298.764h-32.549c-5.56,0-10.067,4.508-10.067,10.068v32.548c0,5.562,4.509,10.067,10.067,10.067
					h32.549c5.562,0,10.066-4.508,10.066-10.067v-32.548C572.456,303.271,567.95,298.764,562.39,298.764z"/>
				<path fill="#F76D59" d="M500.168,298.764h-32.549c-5.562,0-10.067,4.508-10.067,10.068v32.548
					c0,5.562,4.507,10.067,10.067,10.067h32.549c5.561,0,10.068-4.508,10.068-10.067v-32.548
					C510.236,303.271,505.729,298.764,500.168,298.764z"/>
				
					<line opacity="0.5" fill="none" stroke="#0A5DE2" stroke-width="2" stroke-linecap="round" stroke-miterlimit="10" enable-background="new    " x1="445.855" y1="405.215" x2="594.121" y2="405.215"/>
			</g>
			<g>
				<g>
					<g>
						
							<rect x="572.304" y="355.965" transform="matrix(-0.164 -0.9865 0.9865 -0.164 378.4597 1034.0247)" fill="#0C1C3B" width="110.16" height="1.359"/>
					</g>
					<g>
						
							<rect x="539.135" y="355.962" transform="matrix(-0.164 -0.9865 0.9865 -0.164 339.8492 1001.2981)" fill="#0C1C3B" width="110.16" height="1.358"/>
					</g>
					<g>
						<rect x="589.028" y="324.691" fill="#0C1C3B" width="33.458" height="1.359"/>
					</g>
					<g>
						<rect x="591.396" y="339.201" fill="#0C1C3B" width="33.459" height="1.359"/>
					</g>
					<g>
						<rect x="593.766" y="353.709" fill="#0C1C3B" width="33.458" height="1.359"/>
					</g>
					<g>
						<rect x="596.135" y="368.217" fill="#0C1C3B" width="33.458" height="1.36"/>
					</g>
					<g>
						<rect x="598.503" y="382.727" fill="#0C1C3B" width="33.458" height="1.359"/>
					</g>
					<g>
						<rect x="600.871" y="397.234" fill="#0C1C3B" width="33.46" height="1.359"/>
					</g>
				</g>
				<g>
					<g>
						
							<rect x="574.473" y="301.536" transform="matrix(-0.9864 -0.1643 0.1643 -0.9864 1083.9067 802.87)" fill="#2F487A" width="1.361" height="110.155"/>
					</g>
					<g>
						
							<rect x="607.635" y="301.537" transform="matrix(-0.9865 -0.1636 0.1636 -0.9865 1150.0999 807.9357)" fill="#2F487A" width="1.361" height="110.155"/>
					</g>
					<g>
						<rect x="580.051" y="324.691" fill="#2F487A" width="33.458" height="1.359"/>
					</g>
					<g>
						<rect x="577.682" y="339.201" fill="#2F487A" width="33.459" height="1.359"/>
					</g>
					<g>
						<rect x="575.314" y="353.709" fill="#2F487A" width="33.457" height="1.359"/>
					</g>
					<g>
						<rect x="572.945" y="368.217" fill="#2F487A" width="33.458" height="1.36"/>
					</g>
					<g>
						<rect x="570.576" y="382.727" fill="#2F487A" width="33.458" height="1.359"/>
					</g>
					<g>
						<rect x="568.208" y="397.234" fill="#2F487A" width="33.458" height="1.359"/>
					</g>
				</g>
				<g>
					<rect x="581.49" y="300.588" fill="#0A5DE2" width="40.808" height="4.081"/>
				</g>
			</g>
			<g>
				<polygon fill="#F7F5EF" points="723.399,244.781 719.405,203.692 714.269,159.752 718.264,159.181 727.395,200.84 
					741.662,201.981 756.499,159.752 760.493,160.322 749.651,205.406 750.221,243.641 				"/>
				<path fill="#F76D59" d="M728.479,188.646c-1.078,3.939,0.622,10.256,4.561,11.336c3.938,1.078,8.622-3.492,9.699-7.43
					c1.079-3.938-1.239-8.005-5.179-9.084C733.623,182.39,729.557,184.708,728.479,188.646z"/>
				<path fill="#2B159B" d="M733.741,186.373c-0.807-0.222-1.933-0.772-2.361-1.532c-0.041-0.071-0.059-0.139-0.082-0.207
					c1.75-1.264,4.019-1.779,6.263-1.166c3.938,1.079,6.257,5.146,5.178,9.084c-0.771,2.812-3.377,5.934-6.24,7.104
					c0.051-0.794,0.244-1.58,0.448-2.354c0.814-3.113,1.725-6.203,2.723-9.262C737.654,187.64,735.67,187.081,733.741,186.373z"/>
				<path fill="#F76D59" d="M738.343,192.394c0.535-0.391,1.265-0.566,1.872-0.305c0.141,0.06,0.273,0.143,0.381,0.251
					c0.294,0.294,0.38,0.742,0.345,1.155c-0.098,1.143-1.038,2.102-2.135,2.441c-0.311,0.097-0.641,0.15-0.963,0.101
					c-0.32-0.048-0.636-0.208-0.821-0.475C736.332,194.579,737.575,192.953,738.343,192.394z"/>
				<polygon fill="#2F487A" points="750.221,243.641 746.261,306.662 741.901,306.662 738.2,244.15 734.307,244.316 
					731.925,308.202 728.563,308.126 723.399,244.781 722.641,236.977 750.126,237.337 				"/>
				<polygon fill="#000D23" points="746.261,306.662 755.849,307.718 755.502,309.205 741.462,309.205 741.901,306.662 				"/>
				<polygon fill="#000D23" points="731.925,308.202 731.925,309.993 718.757,310.492 718.757,308.846 728.563,308.126 				"/>
				<path fill="#2B159B" d="M735.543,193.987c-2.398,0.261-4.306-2.157-6.698-2.461c-0.149-0.02-0.309-0.027-0.444,0.036
					c-0.178,0.083-0.278,0.269-0.368,0.444c-0.304,0.59-0.606,1.182-0.909,1.772c-0.311,0.603-0.624,1.216-0.761,1.882
					c-0.161,0.796-0.063,1.621,0.073,2.422c0.107,0.635,0.236,1.274,0.521,1.852c0.508,1.032,1.486,1.786,2.567,2.182
					c1.08,0.395,2.258,0.456,3.403,0.354c0.782-0.068,1.569-0.217,2.271-0.57c1.553-0.783,2.498-2.62,2.229-4.338
					c-0.063-0.426-0.196-0.848-0.15-1.275c0.044-0.417,0.255-0.795,0.462-1.162c0.233-0.414,1.817-2.488,0.578-2.5
					c-0.376-0.004-0.923,0.641-1.25,0.831C736.597,193.729,736.086,193.929,735.543,193.987z"/>
				<g opacity="0.4">
					<polygon fill="#AFC6F5" points="751.384,174.31 757.13,174.31 760.493,160.322 756.499,159.752 					"/>
					<polygon fill="#AFC6F5" points="718.264,159.181 714.269,159.752 715.97,174.31 721.579,174.31 					"/>
				</g>
				<path fill="#6AA3E6" d="M815.852,114.751H682.81c-6.527,0-11.818,5.292-11.818,11.82v19.81c0,6.528,5.291,11.819,11.818,11.819
					h133.042c6.527,0,11.819-5.291,11.819-11.819v-19.81C827.671,120.043,822.379,114.751,815.852,114.751z"/>
				<path fill="#F7F5EF" d="M811.922,114.751h-133.04c-6.528,0-11.819,5.292-11.819,11.82v19.81c0,6.528,5.291,11.819,11.819,11.819
					h133.04c6.527,0,11.819-5.291,11.819-11.819v-19.81C823.741,120.043,818.449,114.751,811.922,114.751z"/>
				<path fill="#AFC6F5" d="M813.829,148.159l-6.385-6.64c1.643-1.954,2.541-4.409,2.541-6.966c0-5.974-4.859-10.834-10.835-10.834
					c-5.973,0-10.833,4.86-10.833,10.834c0,5.974,4.86,10.834,10.833,10.834c2.24,0,4.383-0.676,6.208-1.962l6.436,6.693
					c0.271,0.28,0.63,0.435,1.021,0.435c0.364,0,0.712-0.141,0.977-0.396C814.354,149.618,814.368,148.724,813.829,148.159
					L813.829,148.159z M799.15,126.547c4.415,0,8.008,3.592,8.008,8.007c0,4.416-3.593,8.008-8.008,8.008
					c-4.414,0-8.006-3.592-8.006-8.008C791.145,130.139,794.736,126.547,799.15,126.547L799.15,126.547z"/>
				
					<line opacity="0.5" fill="none" stroke="#0A5DE2" stroke-width="2" stroke-linecap="round" stroke-miterlimit="10" enable-background="new    " x1="679.979" y1="310.623" x2="821.441" y2="310.623"/>
				<circle fill="#F76D59" cx="715.762" cy="157.469" r="3.424"/>
				<circle fill="#F76D59" cx="757.105" cy="158.437" r="3.424"/>
			</g>
			<g>
				<circle fill="#AFC6F5" cx="524.601" cy="207.316" r="3.749"/>
				<path fill="#354D7E" d="M516.773,189.651l-32.06-5.628c-5.476-0.962-10.696,2.698-11.656,8.175l-5.628,32.059
					c-0.961,5.476,2.698,10.695,8.176,11.657l32.058,5.627c5.475,0.962,10.696-2.698,11.657-8.175l5.629-32.057
					C525.908,195.831,522.249,190.612,516.773,189.651z"/>
				<g>
					<path fill="#6AA3E6" d="M361.619,371.441h23.576c0.541,0,1.031-0.318,1.246-0.814c0.218-0.497,0.121-1.072-0.248-1.471
						l-22.67-24.481l-1.996,1.847l20.557,22.199h-20.465V371.441z"/>
				</g>
				<g>
					<polygon fill="#D64536" points="527.242,206.38 537.362,210.336 566.791,213.119 556.968,220.053 536.291,215.086 
						525.723,210.245 					"/>
					<circle fill="#AFC6F5" cx="555.091" cy="204.867" r="8.252"/>
					
						<linearGradient id="SVGID_2_" gradientUnits="userSpaceOnUse" x1="587.5137" y1="247.2524" x2="581.5691" y2="210.6704" gradientTransform="matrix(1 0 0 -1 0 502)">
						<stop  offset="0.0033" style="stop-color:#192B4F"/>
						<stop  offset="0.9896" style="stop-color:#2F487A"/>
					</linearGradient>
					<polygon fill="url(#SVGID_2_)" points="593.694,236.046 590.299,270.386 591.431,300.573 579.731,300.573 579.104,298.324 
						587.122,297.255 582.846,270.525 578.987,237.285 					"/>
					<path fill="#F76D59" d="M522.536,209.947c4.312,1.754,18.785,5.603,23.424,5.228l9.715-0.786l10.042-2.646l22.055,10.812
						l-11.755,16.291l-20.095-16.717l-11.875-0.527c-4.882-0.217-18.734-5.503-22.94-7.993L522.536,209.947z"/>
					<path fill="#1F1F89" d="M564.071,199.811c-1.72-3.887-8.623-4.836-12.468-3.025c-0.232,0.11-0.431,0.26-0.646,0.388
						c0.063,0.646,0.248,1.287,0.544,1.76c1.151,1.841,3.314,3.103,5.482,3.253c0,0,0.162,0.429,0.404,1.09
						c0.258-0.285,0.541-0.528,0.871-0.656c0.596-0.232,1.269-0.223,1.881-0.05c1.979,0.557,1.967,3.338,0.604,4.529
						c-0.439,0.384-0.977,0.645-1.531,0.829c-0.065,0.023-0.137,0.029-0.206,0.048c-0.181,2.673-0.017,2.984,0.565,3.82
						C562.712,209.489,566.336,204.935,564.071,199.811z"/>
					<polygon fill="#2F487A" points="629.703,231.484 609.966,240.082 587.237,222.614 575.577,238.605 609.95,249.158 
						630.299,235.514 634.623,240.344 636.084,238.926 					"/>
					<circle fill="#AFC6F5" cx="520.247" cy="211.157" r="3.749"/>
				</g>
				<g>
					<path fill="#6AA3E6" d="M360.404,114.94h26.615v267.512h-26.615V114.94z M384.299,117.661h-21.174v262.071h21.174V117.661z"/>
				</g>
				<rect x="356.762" y="368.134" fill="#F7F5EF" width="33.9" height="24.293"/>
				<g>
					<path fill="#6AA3E6" d="M361.619,270.908h23.576c0.541,0,1.031-0.32,1.246-0.816c0.218-0.494,0.121-1.072-0.248-1.469
						l-22.67-24.482l-1.996,1.849l20.557,22.198h-20.465V270.908z"/>
				</g>
				<g>
					<path fill="#6AA3E6" d="M361.619,296.04h23.576c0.541,0,1.031-0.319,1.246-0.813c0.218-0.496,0.121-1.072-0.248-1.471
						l-22.67-24.482l-1.996,1.85l20.557,22.197h-20.465V296.04z"/>
				</g>
				<g>
					<path fill="#6AA3E6" d="M361.619,321.175h23.576c0.541,0,1.031-0.319,1.246-0.815c0.218-0.496,0.121-1.071-0.248-1.469
						l-22.67-24.482l-1.996,1.848l20.557,22.199h-20.465V321.175z"/>
				</g>
				<g>
					<path fill="#6AA3E6" d="M361.619,346.309h23.576c0.541,0,1.031-0.32,1.246-0.815c0.218-0.495,0.121-1.071-0.248-1.47
						l-22.67-24.482l-1.996,1.85l20.557,22.198h-20.465V346.309z"/>
				</g>
				<g>
					<path fill="#6AA3E6" d="M361.619,246.377h23.576c0.541,0,1.031-0.32,1.246-0.814c0.218-0.496,0.121-1.072-0.248-1.47
						l-22.67-24.483l-1.996,1.848l20.557,22.199h-20.465V246.377z"/>
				</g>
				<g>
					<path fill="#6AA3E6" d="M361.619,221.802h23.576c0.541,0,1.031-0.319,1.246-0.815c0.218-0.495,0.121-1.072-0.248-1.469
						l-22.67-24.484l-1.996,1.848l20.557,22.2h-20.465V221.802z"/>
				</g>
				<g>
					<path fill="#6AA3E6" d="M361.619,197.272h23.576c0.541,0,1.031-0.321,1.246-0.815c0.218-0.496,0.121-1.072-0.248-1.468
						l-22.67-24.484l-1.996,1.848l20.557,22.199h-20.465V197.272z"/>
				</g>
				<g>
					<path fill="#6AA3E6" d="M361.619,172.742h23.576c0.541,0,1.031-0.321,1.246-0.816c0.218-0.496,0.121-1.072-0.248-1.469
						l-22.67-24.483l-1.996,1.848l20.557,22.2h-20.465V172.742z"/>
				</g>
				<g>
					<path fill="#6AA3E6" d="M361.619,148.211h23.576c0.541,0,1.031-0.319,1.246-0.815c0.218-0.496,0.121-1.073-0.248-1.469
						l-22.67-24.484l-1.996,1.848l20.557,22.2h-20.465V148.211z"/>
				</g>
				<g>
					<path fill="#3878FF" d="M361.619,123.681h23.576c0.541,0,1.031-0.319,1.246-0.815c0.218-0.496,0.121-1.072-0.248-1.468
						l-22.67-24.484l-1.996,1.848l20.557,22.2h-20.465V123.681z"/>
				</g>
				<rect x="360.45" y="87.797" fill="#2F487A" width="43.144" height="36.373"/>
				<rect x="295.613" y="87.797" fill="#2F487A" width="43.145" height="20.892"/>
				<g>
					<path fill="#6AA3E6" d="M296.329,90.453H509.43c0.752,0,1.36-0.609,1.36-1.36s-0.608-1.36-1.36-1.36H296.329
						c-0.751,0-1.36,0.609-1.36,1.36S295.578,90.453,296.329,90.453z"/>
				</g>
				<g>
					<rect x="498.171" y="95.441" fill="#6AA3E6" width="1.359" height="88.414"/>
				</g>
				<path fill="#B0D8FF" d="M372.501,88.187"/>
				<rect x="345.199" y="388.084" fill="#2F487A" width="57.024" height="10.689"/>
				<g>
					<path fill="#6AA3E6" d="M381.864,90.097c0.173,0,0.348-0.066,0.479-0.199l11.363-11.362H497.88l10.684,10.682
						c0.267,0.266,0.695,0.266,0.962,0c0.266-0.266,0.266-0.696,0-0.961l-11.08-11.082H393.144l-11.761,11.762
						c-0.266,0.266-0.266,0.695,0,0.961C381.516,90.031,381.689,90.097,381.864,90.097z"/>
				</g>
				<g>
					<path fill="#6AA3E6" d="M295.422,90.097c0.244,0,0.48-0.133,0.604-0.365l11.371-21.723h27.576l10.693,21.036
						c0.17,0.335,0.58,0.465,0.914,0.299c0.335-0.17,0.468-0.581,0.298-0.916l-11.071-21.779h-29.233L294.82,89.102
						c-0.176,0.333-0.047,0.744,0.287,0.918C295.208,90.072,295.314,90.097,295.422,90.097z"/>
				</g>
				<circle fill="#F7F5EF" cx="498.85" cy="95.441" r="4.988"/>
				<g>
					<path fill="#6AA3E6" d="M469.362,78.526c0.292,0,0.561-0.188,0.65-0.481c0.108-0.359-0.094-0.741-0.452-0.85L368.859,46.49
						c-0.154-0.046-0.317-0.038-0.463,0.024l-47.729,20.144c-0.347,0.146-0.508,0.544-0.362,0.89
						c0.146,0.347,0.547,0.509,0.891,0.362l47.503-20.047l100.465,30.632C469.229,78.516,469.295,78.526,469.362,78.526z"/>
				</g>
				<g>
					<path fill="#6AA3E6" d="M384.504,90.188c0.16,0,0.324-0.029,0.482-0.089c0.703-0.267,1.056-1.053,0.789-1.756L369.919,46.62
						c-0.215-0.564-0.772-0.921-1.383-0.871c-0.604,0.049-1.103,0.492-1.224,1.086l-8.196,40.692
						c-0.147,0.736,0.329,1.455,1.065,1.602c0.733,0.144,1.452-0.329,1.602-1.065l7.267-36.072l14.185,37.319
						C383.438,89.854,383.956,90.188,384.504,90.188z"/>
				</g>
				<circle fill="#BCCCFD" cx="368.648" cy="47.104" r="2.741"/>
				<g>
					<path fill="#6AA3E6" d="M483.7,90.227c0.148,0,0.301-0.049,0.428-0.151l13.355-10.796v10.094c0,0.376,0.306,0.68,0.68,0.68
						c0.378,0,0.681-0.304,0.681-0.68V77.855c0-0.263-0.15-0.501-0.387-0.614c-0.235-0.114-0.518-0.081-0.723,0.085l-14.462,11.691
						c-0.292,0.237-0.339,0.664-0.102,0.958C483.304,90.14,483.501,90.227,483.7,90.227z"/>
				</g>
				<g>
					<path fill="#6AA3E6" d="M470.783,90.227c0.15,0,0.302-0.049,0.427-0.151l13.358-10.796v10.094c0,0.376,0.303,0.68,0.68,0.68
						c0.375,0,0.681-0.304,0.681-0.68V77.855c0-0.263-0.15-0.501-0.388-0.614c-0.234-0.114-0.516-0.081-0.72,0.085l-14.466,11.691
						c-0.294,0.237-0.338,0.664-0.103,0.958C470.389,90.14,470.586,90.227,470.783,90.227z"/>
				</g>
				<g>
					<path fill="#6AA3E6" d="M457.867,90.227c0.15,0,0.302-0.049,0.428-0.151l13.357-10.796v10.094c0,0.376,0.305,0.68,0.68,0.68
						c0.376,0,0.68-0.304,0.68-0.68V77.855c0-0.263-0.149-0.501-0.388-0.614c-0.233-0.114-0.515-0.081-0.72,0.085l-14.467,11.691
						c-0.291,0.237-0.337,0.664-0.101,0.958C457.474,90.14,457.67,90.227,457.867,90.227z"/>
				</g>
				<g>
					<path fill="#6AA3E6" d="M444.952,90.227c0.149,0,0.302-0.049,0.428-0.151l13.355-10.796v10.094c0,0.376,0.306,0.68,0.681,0.68
						c0.377,0,0.68-0.304,0.68-0.68V77.855c0-0.263-0.149-0.501-0.387-0.614c-0.235-0.114-0.516-0.081-0.721,0.085l-14.464,11.691
						c-0.292,0.237-0.337,0.664-0.103,0.958C444.558,90.14,444.754,90.227,444.952,90.227z"/>
				</g>
				<g>
					<path fill="#6AA3E6" d="M432.037,90.227c0.148,0,0.3-0.049,0.426-0.151L445.82,79.28v10.094c0,0.376,0.304,0.68,0.681,0.68
						c0.375,0,0.681-0.304,0.681-0.68V77.855c0-0.263-0.151-0.501-0.388-0.614c-0.235-0.114-0.516-0.081-0.722,0.085l-14.464,11.691
						c-0.292,0.237-0.339,0.664-0.103,0.958C431.641,90.14,431.838,90.227,432.037,90.227z"/>
				</g>
				<g>
					<path fill="#6AA3E6" d="M419.12,90.227c0.149,0,0.301-0.049,0.427-0.151l13.357-10.796v10.094c0,0.376,0.305,0.68,0.68,0.68
						c0.376,0,0.681-0.304,0.681-0.68V77.855c0-0.263-0.149-0.501-0.388-0.614c-0.233-0.114-0.516-0.081-0.721,0.085l-14.465,11.691
						c-0.292,0.237-0.338,0.664-0.102,0.958C418.726,90.14,418.922,90.227,419.12,90.227z"/>
				</g>
				<g>
					<path fill="#6AA3E6" d="M406.205,90.227c0.148,0,0.301-0.049,0.428-0.151l13.355-10.796v10.094c0,0.376,0.305,0.68,0.681,0.68
						s0.68-0.304,0.68-0.68V77.855c0-0.263-0.148-0.501-0.387-0.614c-0.234-0.114-0.517-0.081-0.721,0.085l-14.465,11.691
						c-0.293,0.237-0.337,0.664-0.102,0.958C405.81,90.14,406.007,90.227,406.205,90.227z"/>
				</g>
				<g>
					<path fill="#6AA3E6" d="M393.289,90.227c0.148,0,0.301-0.049,0.427-0.151l13.357-10.796v10.094c0,0.376,0.304,0.68,0.681,0.68
						c0.375,0,0.679-0.304,0.679-0.68V77.855c0-0.263-0.149-0.501-0.387-0.614c-0.235-0.114-0.517-0.081-0.72,0.085L392.86,89.018
						c-0.292,0.237-0.339,0.664-0.102,0.958C392.894,90.14,393.09,90.227,393.289,90.227z"/>
				</g>
				<g>
					<path fill="#6AA3E6" d="M316.934,90.227c0.192,0,0.387-0.082,0.521-0.241l17.348-20.473v19.86c0,0.376,0.304,0.68,0.679,0.68
						c0.377,0,0.683-0.304,0.683-0.68V67.659c0-0.285-0.179-0.541-0.446-0.638c-0.269-0.1-0.568-0.02-0.753,0.198l-18.546,21.888
						c-0.244,0.286-0.208,0.715,0.079,0.958C316.622,90.174,316.777,90.227,316.934,90.227z"/>
				</g>
				<g>
					<path fill="#6AA3E6" d="M303.592,90.227c0.221,0,0.438-0.107,0.567-0.306l13.218-19.999v19.451c0,0.376,0.305,0.68,0.68,0.68
						c0.377,0,0.682-0.304,0.682-0.68V67.659c0-0.3-0.196-0.564-0.484-0.651c-0.291-0.083-0.6,0.026-0.763,0.276l-14.466,21.887
						c-0.207,0.314-0.121,0.736,0.191,0.943C303.332,90.19,303.463,90.227,303.592,90.227z"/>
				</g>
				<circle fill="#2F487A" cx="498.851" cy="185.669" r="4.283"/>
				
					<line opacity="0.5" fill="none" stroke="#0A5DE2" stroke-width="2" stroke-linecap="round" stroke-miterlimit="10" enable-background="new    " x1="320.695" y1="399.786" x2="424.072" y2="399.786"/>
			</g>
			<g>
				<polygon fill="#F76D59" points="867.654,381.641 866.113,360.314 868.496,344.617 876.598,298.359 872.686,297.802 
					863.742,338.604 849.771,339.721 835.237,298.359 831.324,298.919 841.944,343.074 845.671,359.951 845.234,380.521 				"/>
				<polygon fill="#1F1F89" points="848.4,324.628 847.021,336.822 855.323,337.484 860.399,324.628 				"/>
				<circle fill="#F7F5EF" cx="855.324" cy="329.102" r="8.384"/>
				<path fill="#2F487A" d="M870.821,246.814h-32.55c-5.56,0-10.067,4.508-10.067,10.067v32.55c0,5.559,4.509,10.066,10.067,10.066
					h32.55c5.561,0,10.066-4.51,10.066-10.066v-32.55C880.889,251.322,876.382,246.814,870.821,246.814z"/>
				<path fill="#1F1F89" d="M858.401,328.543c0.165,0.079,0.354,0.154,0.521,0.088c0.171-0.064,0.258-0.247,0.369-0.392
					c0.436-0.567,1.389-0.566,1.896-0.063c0.509,0.504,0.558,1.363,0.206,1.985c-0.353,0.622-1.038,1.01-1.745,1.116
					c-0.466,1.658-0.656,3.395-0.564,5.115c1.15,0.084,2.302,0.17,3.454,0.254c0.224,0.017,0.47,0.026,0.646-0.11
					c0.167-0.129,0.226-0.351,0.271-0.558c0.43-1.974,0.645-3.996,0.641-6.017c-0.005-1.969-0.238-4.011-1.256-5.698
					c-1.217-2.019-6.208-5.34-8.643-3.479C851.514,322.839,856.545,327.65,858.401,328.543z"/>
				<path fill="#1F1F89" d="M851.457,325.658c-1.419,1.39-3.261,2.449-5.243,2.535c-0.09-2.215,0.882-4.451,2.566-5.896
					c0.944-0.812,4.126-2.604,5.428-1.743C855.556,321.447,852.416,324.719,851.457,325.658z"/>
				
					<linearGradient id="SVGID_3_" gradientUnits="userSpaceOnUse" x1="821.3877" y1="96.3423" x2="871.5547" y2="96.3423" gradientTransform="matrix(1 0 0 -1 0 502)">
					<stop  offset="0.0033" style="stop-color:#192B4F"/>
					<stop  offset="0.9896" style="stop-color:#2F487A"/>
				</linearGradient>
				<polygon fill="url(#SVGID_3_)" points="866.838,366.512 845.463,365.514 829.019,439.168 821.388,434.523 830.678,445.802 
					852.573,385.092 852.241,412.627 867.088,432.298 868.035,439.397 868.429,442.416 871.074,442.104 871.555,431.281 
					860.063,412.595 868.172,381.66 				"/>
				<polygon fill="#F7F5EF" points="868.189,318.316 872.818,319.939 876.598,298.359 872.686,297.802 				"/>
				<polygon fill="#F7F5EF" points="841.238,315.438 835.813,317.58 831.324,298.919 835.237,298.359 				"/>
				<polygon fill="#F7F5EF" points="859.371,338.951 855.359,346.074 853.34,339.436 				"/>
				<circle fill="#F7F5EF" cx="832.928" cy="296.125" r="3.354"/>
				<circle fill="#F7F5EF" cx="875.027" cy="296.753" r="3.354"/>
				
					<linearGradient id="SVGID_4_" gradientUnits="userSpaceOnUse" x1="848.2207" y1="123.8828" x2="836.549" y2="94.7034" gradientTransform="matrix(1 0 0 -1 0 502)">
					<stop  offset="0.0033" style="stop-color:#192B4F"/>
					<stop  offset="0.9896" style="stop-color:#2F487A"/>
				</linearGradient>
				<path fill="url(#SVGID_4_)" d="M846.551,401.787l5.164-14.316l0.482-4.549l-6.734-17.408l-7.143,31.992
					C841.375,399.14,844.359,400.675,846.551,401.787z"/>
				
					<line opacity="0.5" fill="none" stroke="#0A5DE2" stroke-width="2" stroke-linecap="round" stroke-miterlimit="10" enable-background="new    " x1="802.054" y1="444.441" x2="905.428" y2="444.441"/>
				<g>
					<g>
						<path fill="#FFFFFF" d="M876.594,264.116l-20.566-10.677c-0.422-0.22-0.922-0.22-1.343,0l-20.566,10.677
							c-0.482,0.25-0.784,0.748-0.785,1.291l0,0v5.573c0,0.804,0.652,1.455,1.456,1.455s1.455-0.651,1.455-1.455v-3.179l3.12,1.619
							v11.59c0,0.304,0.095,0.601,0.271,0.847c0.151,0.213,3.842,5.183,15.722,5.183c11.879,0,15.568-4.97,15.721-5.183
							c0.177-0.246,0.271-0.543,0.271-0.847v-11.59l5.246-2.723c0.482-0.25,0.784-0.748,0.784-1.292
							C877.378,264.864,877.076,264.366,876.594,264.116z M868.438,280.45c-0.967,0.929-4.551,3.68-13.081,3.68
							c-8.531,0-12.115-2.751-13.082-3.68v-9.517l12.411,6.441c0.211,0.109,0.439,0.164,0.671,0.164c0.23,0,0.461-0.055,0.671-0.164
							l12.41-6.441V280.45z M855.355,274.443l-17.408-9.036l17.408-9.036l17.407,9.036L855.355,274.443z"/>
						<path fill="#FFFFFF" d="M834.788,273.719c-0.804,0-1.455,0.652-1.455,1.456v1.761c0,0.803,0.651,1.455,1.455,1.455
							s1.455-0.652,1.455-1.455v-1.761C836.243,274.371,835.592,273.719,834.788,273.719z"/>
					</g>
				</g>
			</g>
			
				<line opacity="0.5" fill="none" stroke="#0A5DE2" stroke-width="2" stroke-linecap="round" stroke-miterlimit="10" enable-background="new    " x1="546.67" y1="410.676" x2="650.045" y2="410.676"/>
			<g>
				<path fill="#354D7E" d="M705.429,330.592h-32.547c-5.561,0-10.067,4.508-10.067,10.068v32.549
					c0,5.561,4.508,10.066,10.067,10.066h32.547c5.563,0,10.069-4.508,10.069-10.066V340.66
					C715.498,335.1,710.99,330.592,705.429,330.592z"/>
				<polygon fill="#F7F5EF" points="675.431,468.773 671.463,427.971 666.361,384.333 670.329,383.766 679.396,425.136 
					693.564,426.271 708.299,384.333 712.267,384.898 701.498,429.67 702.064,467.64 				"/>
				<circle fill="#F76D59" cx="669.195" cy="382.064" r="3.4"/>
				<circle fill="#F76D59" cx="708.866" cy="383.198" r="3.4"/>
				<circle fill="#F76D59" cx="686.804" cy="412.737" r="8.647"/>
				<circle fill="#1F1F89" cx="686.804" cy="414.098" r="8.647"/>
				
					<linearGradient id="SVGID_5_" gradientUnits="userSpaceOnUse" x1="674.6758" y1="5.6094" x2="702.0645" y2="5.6094" gradientTransform="matrix(1 0 0 -1 0 502)">
					<stop  offset="0.0033" style="stop-color:#192B4F"/>
					<stop  offset="0.9896" style="stop-color:#2F487A"/>
				</linearGradient>
				<polygon fill="url(#SVGID_5_)" points="702.064,467.64 698.134,530.226 693.804,530.226 690.127,468.148 686.261,468.313 
					683.896,531.757 680.557,531.678 675.431,468.773 674.676,461.024 701.973,461.379 				"/>
				<polygon fill="#3878FF" points="698.134,530.226 707.652,531.275 707.308,532.751 693.367,532.751 693.804,530.226 				"/>
				<polygon fill="#3878FF" points="683.896,531.757 683.896,533.533 670.818,534.028 670.818,532.393 680.557,531.678 				"/>
				
					<line opacity="0.5" fill="none" stroke="#0A5DE2" stroke-width="2" stroke-linecap="round" stroke-miterlimit="10" enable-background="new    " x1="655.706" y1="533.66" x2="731.875" y2="533.66"/>
				<g>
					<g>
						<g>
							<path fill="#FFFFFF" d="M681.362,342.359c-1.044-1.393-2.453-2.158-3.969-2.158c-1.515,0-2.924,0.767-3.968,2.158
								c-0.992,1.324-1.539,3.07-1.539,4.92s0.547,3.598,1.539,4.921c0.581,0.774,1.274,1.354,2.036,1.717l-1.165,17.519
								c-0.057,0.854,0.246,1.701,0.831,2.326c0.584,0.625,1.41,0.983,2.266,0.983c0.856,0,1.683-0.358,2.267-0.983
								c0.585-0.623,0.888-1.473,0.83-2.326l-1.164-17.519c0.762-0.362,1.455-0.942,2.036-1.717
								c0.991-1.323,1.539-3.071,1.539-4.921C682.901,345.432,682.354,343.684,681.362,342.359z M678.503,372.68
								c-0.29,0.311-0.684,0.48-1.108,0.48c-0.424,0-0.817-0.171-1.108-0.48c-0.29-0.311-0.436-0.715-0.406-1.139l1.145-17.2
								c0.124,0.011,0.247,0.019,0.372,0.019s0.247-0.008,0.37-0.019l1.146,17.2C678.938,371.965,678.794,372.369,678.503,372.68z
								 M677.395,352.773c-0.283,0-0.561-0.043-0.826-0.125c-0.022-0.008-0.045-0.016-0.067-0.021
								c-1.733-0.569-3.027-2.75-3.027-5.349c0-3.029,1.76-5.493,3.923-5.493c2.162,0,3.923,2.464,3.923,5.493
								S679.558,352.773,677.395,352.773z"/>
						</g>
					</g>
					<g>
						<g>
							<path fill="#FFFFFF" d="M706.32,360.841v-19.747l-0.008,0.002c0.023-0.174-0.012-0.356-0.11-0.519
								c-0.229-0.372-0.718-0.487-1.091-0.257c-3.231,1.998-5.161,5.459-5.162,9.258c0,0.001,0,0.001,0,0.002v10.375
								c0,0.91,0.728,1.65,1.631,1.68v10.729c0,1.307,1.063,2.37,2.37,2.37s2.37-1.063,2.37-2.37v-11.519
								C706.32,360.844,706.32,360.843,706.32,360.841z M701.631,360.053c-0.054,0-0.097-0.044-0.097-0.098v-10.374v-0.001
								c0-2.74,1.175-5.275,3.202-7.025v17.498H701.631z M704.736,372.363c0,0.434-0.354,0.785-0.786,0.785
								c-0.434,0-0.786-0.353-0.786-0.785v-10.727h1.572V372.363z"/>
						</g>
					</g>
					<g>
						<g>
							<path fill="#FFFFFF" d="M694.285,340.201c-0.438,0-0.792,0.355-0.792,0.793v9h-2.02v-9c0-0.438-0.354-0.793-0.792-0.793
								c-0.438,0-0.792,0.355-0.792,0.793v9h-2.02v-9c0-0.438-0.354-0.793-0.792-0.793c-0.438,0-0.792,0.355-0.792,0.793v11.469
								c0,1.291,1.051,2.342,2.342,2.342h0.141l-1.11,16.709c-0.057,0.832,0.24,1.66,0.811,2.271
								c0.571,0.61,1.378,0.961,2.214,0.961c0.835,0,1.643-0.351,2.213-0.961c0.571-0.61,0.866-1.438,0.812-2.271l-1.111-16.709
								h0.143c1.291,0,2.342-1.051,2.342-2.342v-11.469C695.078,340.557,694.723,340.201,694.285,340.201z M691.738,372.702
								c-0.276,0.295-0.651,0.458-1.057,0.458c-0.404,0-0.779-0.163-1.057-0.458c-0.276-0.296-0.413-0.681-0.387-1.084l1.119-16.813
								h0.647l1.118,16.813C692.152,372.021,692.015,372.406,691.738,372.702z M693.493,352.463c0,0.417-0.34,0.758-0.758,0.758
								h-3.146c-0.001,0-0.002,0-0.003,0h-0.958c-0.418,0-0.757-0.341-0.757-0.758v-0.885h5.621L693.493,352.463L693.493,352.463z"
								/>
						</g>
					</g>
				</g>
			</g>
			<g>
				<path fill="#80392E" d="M524.767,470.068c0.001,0.104-0.015,0.207-0.04,0.31c-0.007,0.024-0.016,0.05-0.023,0.074
					c-0.024,0.084-0.061,0.167-0.104,0.252c-0.011,0.018-0.018,0.035-0.027,0.054c-0.057,0.099-0.125,0.194-0.205,0.29
					c-0.018,0.021-0.037,0.043-0.057,0.063c-0.076,0.087-0.166,0.174-0.264,0.261c-0.014,0.012-0.024,0.021-0.037,0.035
					c-0.109,0.092-0.236,0.184-0.371,0.272c-0.037,0.025-0.076,0.051-0.114,0.075c-0.11,0.069-0.229,0.137-0.352,0.204
					c-0.05,0.026-0.096,0.053-0.146,0.08c-0.134,0.066-0.275,0.132-0.422,0.198c-0.058,0.022-0.107,0.05-0.166,0.075
					c-0.214,0.089-0.438,0.175-0.681,0.26l-23.19,8.023c-0.22,0.076-0.47,0.133-0.699,0.198c-0.342,0.101-0.68,0.201-1.047,0.281
					c-0.441,0.099-0.9,0.183-1.371,0.255c-0.287,0.044-0.583,0.076-0.876,0.11c-0.366,0.043-0.729,0.09-1.103,0.116
					c-0.075,0.007-0.149,0.013-0.228,0.018c-0.596,0.041-1.197,0.063-1.801,0.066c-0.015,0-0.026,0-0.04,0
					c-0.632,0.003-1.266-0.015-1.887-0.055c-0.009,0-0.017,0-0.021-0.001c-0.624-0.039-1.236-0.099-1.829-0.18
					c-0.017-0.001-0.03-0.003-0.045-0.005c-0.582-0.079-1.144-0.18-1.68-0.301c-0.021-0.003-0.036-0.006-0.055-0.01
					c-0.548-0.123-1.069-0.267-1.552-0.433l-22.839-7.823c-0.128-0.044-0.241-0.091-0.361-0.137
					c-0.105-0.041-0.221-0.079-0.319-0.122c-0.108-0.045-0.2-0.093-0.301-0.141c-0.094-0.045-0.197-0.088-0.284-0.134
					c-0.087-0.045-0.158-0.092-0.238-0.138c-0.087-0.051-0.18-0.102-0.26-0.151c-0.069-0.046-0.127-0.095-0.19-0.142
					c-0.072-0.053-0.151-0.104-0.216-0.159c-0.063-0.053-0.108-0.107-0.164-0.162c-0.051-0.051-0.108-0.1-0.151-0.149
					c-0.056-0.064-0.097-0.133-0.142-0.196c-0.025-0.041-0.063-0.081-0.086-0.122c-0.029-0.053-0.045-0.107-0.067-0.16
					c-0.068-0.164-0.116-0.327-0.116-0.492l0.081,10.216c0,0.164,0.049,0.327,0.117,0.492c0.021,0.054,0.037,0.107,0.067,0.16
					c0.021,0.041,0.059,0.081,0.087,0.122c0.044,0.066,0.083,0.131,0.141,0.197c0.036,0.045,0.088,0.087,0.132,0.131
					c0.06,0.061,0.114,0.121,0.186,0.181c0.044,0.037,0.101,0.073,0.148,0.11c0.082,0.063,0.161,0.129,0.258,0.19
					c0.059,0.039,0.13,0.074,0.192,0.113c0.101,0.06,0.193,0.117,0.303,0.175c0.064,0.033,0.141,0.064,0.206,0.098
					c0.124,0.061,0.244,0.121,0.382,0.179c0.084,0.034,0.179,0.066,0.267,0.101c0.133,0.053,0.261,0.104,0.404,0.153
					c0.002,0.001,0.005,0.002,0.009,0.003l22.84,7.823c0.256,0.088,0.525,0.17,0.801,0.247c0.229,0.062,0.462,0.121,0.701,0.175
					c0.019,0.005,0.034,0.007,0.051,0.012c0.017,0.003,0.033,0.006,0.052,0.011c0.179,0.04,0.36,0.077,0.547,0.113
					c0.204,0.041,0.412,0.076,0.621,0.109c0.169,0.027,0.341,0.052,0.513,0.075c0.017,0.002,0.029,0.005,0.044,0.007
					c0.018,0.001,0.034,0.004,0.051,0.007c0.199,0.026,0.399,0.05,0.604,0.073c0.199,0.021,0.401,0.04,0.604,0.057
					c0.189,0.017,0.379,0.03,0.57,0.042c0.007,0,0.015,0,0.021,0.002c0.009,0,0.017,0,0.023,0.001
					c0.209,0.014,0.419,0.023,0.629,0.031c0.215,0.009,0.431,0.015,0.647,0.019c0.196,0.003,0.393,0.006,0.59,0.003
					c0.011,0,0.021,0,0.035,0c0.012,0,0.027,0.003,0.042,0c0.232-0.001,0.468-0.006,0.7-0.013c0.259-0.008,0.516-0.018,0.771-0.033
					c0.096-0.005,0.189-0.015,0.286-0.021c0.077-0.006,0.153-0.013,0.229-0.018c0.144-0.011,0.284-0.02,0.424-0.032
					c0.231-0.02,0.449-0.06,0.677-0.085c0.296-0.035,0.589-0.066,0.879-0.111c0.082-0.012,0.171-0.019,0.253-0.031
					c0.336-0.057,0.668-0.118,0.989-0.188c0.044-0.009,0.083-0.023,0.127-0.032c0.367-0.084,0.709-0.186,1.054-0.285
					c0.178-0.052,0.378-0.09,0.547-0.146c0.049-0.019,0.099-0.034,0.146-0.052l23.19-8.025c0.231-0.08,0.448-0.161,0.651-0.246
					c0.01-0.004,0.018-0.009,0.026-0.013c0.063-0.024,0.115-0.054,0.175-0.078c0.115-0.054,0.237-0.104,0.345-0.158
					c0.023-0.012,0.045-0.024,0.068-0.036c0.052-0.027,0.1-0.054,0.146-0.081c0.068-0.036,0.141-0.072,0.204-0.109
					c0.052-0.031,0.097-0.063,0.146-0.095c0.039-0.024,0.079-0.049,0.117-0.073c0.024-0.019,0.053-0.033,0.076-0.051
					c0.1-0.069,0.193-0.141,0.277-0.212c0.006-0.004,0.012-0.009,0.016-0.014c0.014-0.011,0.025-0.024,0.039-0.034
					c0.063-0.054,0.121-0.106,0.174-0.161c0.033-0.032,0.061-0.064,0.089-0.1c0.021-0.021,0.039-0.042,0.059-0.063
					c0.014-0.016,0.027-0.031,0.043-0.048c0.055-0.071,0.104-0.143,0.147-0.215c0.007-0.009,0.009-0.018,0.013-0.025
					c0.012-0.019,0.019-0.036,0.027-0.056c0.024-0.047,0.052-0.093,0.07-0.14c0.015-0.037,0.022-0.074,0.034-0.111
					c0.008-0.025,0.016-0.049,0.021-0.074c0.005-0.016,0.013-0.028,0.015-0.046c0.019-0.081,0.026-0.161,0.027-0.245
					c0-0.006,0-0.012,0-0.02L524.767,470.068z"/>
				<g>
					<path fill="#F76D59" d="M521.879,467.67c3.898,1.336,3.841,3.532-0.119,4.903l-23.19,8.023c-3.959,1.371-10.33,1.4-14.23,0.063
						l-22.839-7.823c-3.899-1.335-3.86-3.532,0.1-4.903l23.192-8.024c3.961-1.371,10.347-1.398,14.247-0.063L521.879,467.67z"/>
				</g>
			</g>
			<g>
				<path fill="#2F487A" d="M592.425,442.31c0,0.104-0.016,0.207-0.041,0.311c-0.006,0.024-0.016,0.049-0.021,0.074
					c-0.026,0.084-0.062,0.168-0.104,0.252c-0.01,0.019-0.017,0.036-0.026,0.054c-0.058,0.098-0.126,0.194-0.205,0.29
					c-0.019,0.021-0.037,0.043-0.059,0.063c-0.078,0.088-0.164,0.175-0.264,0.26c-0.013,0.013-0.022,0.021-0.035,0.034
					c-0.111,0.094-0.237,0.186-0.37,0.275c-0.038,0.025-0.078,0.05-0.117,0.075c-0.108,0.067-0.227,0.136-0.352,0.203
					c-0.048,0.025-0.095,0.053-0.146,0.079c-0.132,0.066-0.274,0.134-0.421,0.198c-0.058,0.023-0.107,0.051-0.167,0.075
					c-0.212,0.089-0.438,0.175-0.678,0.261l-23.193,8.024c-0.218,0.076-0.468,0.131-0.698,0.197c-0.342,0.1-0.681,0.201-1.046,0.282
					c-0.441,0.099-0.902,0.183-1.372,0.253c-0.287,0.044-0.583,0.078-0.877,0.111c-0.363,0.042-0.728,0.09-1.101,0.116
					c-0.076,0.006-0.151,0.014-0.228,0.017c-0.598,0.042-1.198,0.065-1.802,0.067c-0.015,0-0.027,0-0.04,0
					c-0.634,0.004-1.266-0.016-1.888-0.054c-0.007,0-0.015,0-0.021-0.002c-0.622-0.039-1.235-0.1-1.831-0.179
					c-0.016-0.002-0.026-0.005-0.043-0.007c-0.58-0.079-1.145-0.18-1.682-0.299c-0.017-0.004-0.033-0.006-0.052-0.012
					c-0.549-0.122-1.07-0.269-1.553-0.432l-22.839-7.823c-0.128-0.043-0.24-0.092-0.36-0.137c-0.105-0.041-0.221-0.079-0.319-0.122
					c-0.107-0.046-0.2-0.094-0.301-0.14c-0.096-0.046-0.198-0.09-0.286-0.135c-0.086-0.045-0.158-0.092-0.237-0.139
					c-0.087-0.051-0.181-0.1-0.259-0.15c-0.069-0.046-0.129-0.095-0.19-0.142c-0.071-0.055-0.152-0.104-0.216-0.159
					c-0.063-0.053-0.11-0.107-0.164-0.162c-0.051-0.051-0.109-0.099-0.151-0.15c-0.057-0.063-0.098-0.132-0.141-0.196
					c-0.028-0.041-0.064-0.08-0.087-0.121c-0.03-0.055-0.045-0.107-0.067-0.161c-0.069-0.163-0.115-0.326-0.117-0.491l0.081,10.216
					c0.001,0.165,0.048,0.328,0.116,0.492c0.023,0.053,0.039,0.107,0.068,0.16c0.022,0.041,0.06,0.082,0.086,0.123
					c0.045,0.063,0.085,0.131,0.141,0.196c0.039,0.045,0.09,0.088,0.133,0.132c0.062,0.059,0.114,0.12,0.187,0.181
					c0.044,0.037,0.1,0.072,0.146,0.109c0.084,0.063,0.165,0.129,0.26,0.191c0.06,0.038,0.131,0.073,0.193,0.112
					c0.1,0.059,0.192,0.117,0.303,0.176c0.063,0.032,0.139,0.063,0.205,0.097c0.123,0.059,0.244,0.119,0.381,0.179
					c0.083,0.034,0.181,0.064,0.269,0.101c0.132,0.054,0.26,0.104,0.404,0.153c0.002,0.001,0.006,0.003,0.007,0.004l22.841,7.823
					c0.257,0.087,0.522,0.17,0.801,0.247c0.229,0.062,0.462,0.119,0.702,0.175c0.017,0.003,0.034,0.007,0.051,0.011
					c0.016,0.004,0.033,0.007,0.049,0.01c0.182,0.04,0.362,0.078,0.548,0.115c0.203,0.038,0.412,0.075,0.621,0.108
					c0.17,0.026,0.342,0.052,0.516,0.075c0.015,0.002,0.027,0.004,0.044,0.006c0.015,0.003,0.032,0.005,0.049,0.009
					c0.198,0.026,0.401,0.049,0.604,0.07c0.198,0.021,0.401,0.042,0.605,0.06c0.188,0.015,0.378,0.029,0.569,0.041
					c0.009,0,0.015,0,0.021,0c0.01,0.003,0.018,0.003,0.025,0.004c0.208,0.012,0.418,0.022,0.63,0.029
					c0.215,0.01,0.431,0.015,0.646,0.02c0.196,0.003,0.394,0.004,0.591,0.003c0.012,0,0.022,0,0.035,0c0.014,0,0.027,0.001,0.042,0
					c0.234-0.002,0.469-0.006,0.701-0.013c0.258-0.007,0.515-0.019,0.771-0.032c0.097-0.007,0.19-0.016,0.287-0.021
					c0.076-0.006,0.152-0.013,0.229-0.019c0.142-0.011,0.285-0.019,0.424-0.031c0.23-0.021,0.447-0.059,0.676-0.085
					c0.297-0.034,0.59-0.066,0.878-0.111c0.084-0.014,0.172-0.02,0.256-0.032c0.335-0.056,0.666-0.118,0.986-0.188
					c0.047-0.01,0.083-0.022,0.128-0.032c0.369-0.083,0.711-0.185,1.053-0.285c0.179-0.052,0.377-0.09,0.548-0.146
					c0.049-0.016,0.098-0.031,0.146-0.05l23.19-8.024c0.23-0.08,0.448-0.162,0.651-0.247c0.009-0.004,0.018-0.01,0.025-0.013
					c0.063-0.024,0.115-0.054,0.174-0.077c0.117-0.055,0.236-0.104,0.346-0.159c0.024-0.013,0.045-0.025,0.068-0.037
					c0.052-0.026,0.099-0.053,0.147-0.079c0.069-0.037,0.14-0.073,0.204-0.11c0.052-0.031,0.098-0.063,0.146-0.095
					c0.038-0.025,0.078-0.049,0.115-0.074c0.025-0.017,0.053-0.032,0.077-0.049c0.099-0.07,0.192-0.141,0.276-0.213
					c0.006-0.003,0.012-0.009,0.018-0.014c0.014-0.013,0.023-0.023,0.037-0.034c0.061-0.055,0.121-0.106,0.175-0.161
					c0.032-0.032,0.062-0.066,0.089-0.101c0.02-0.021,0.038-0.043,0.057-0.063c0.013-0.016,0.029-0.032,0.043-0.049
					c0.057-0.07,0.105-0.144,0.148-0.214c0.004-0.009,0.006-0.018,0.012-0.027c0.013-0.019,0.021-0.035,0.028-0.054
					c0.025-0.046,0.052-0.093,0.071-0.141c0.014-0.037,0.021-0.073,0.034-0.11c0.006-0.026,0.015-0.05,0.021-0.073
					c0.002-0.016,0.01-0.03,0.014-0.047c0.018-0.081,0.025-0.162,0.025-0.244c0-0.007,0-0.014,0-0.02L592.425,442.31z"/>
				<g>
					<path fill="#6AA3E6" d="M589.536,439.911c3.898,1.336,3.842,3.532-0.117,4.903l-23.193,8.024
						c-3.959,1.371-10.329,1.398-14.229,0.063l-22.839-7.823c-3.9-1.336-3.859-3.532,0.101-4.903l23.191-8.023
						c3.96-1.371,10.348-1.4,14.248-0.063L589.536,439.911z"/>
				</g>
			</g>
			<g>
				<path fill="#80392E" d="M1378.144,279.301c0.001,0.104-0.015,0.207-0.04,0.31c-0.007,0.024-0.016,0.05-0.023,0.074
					c-0.024,0.084-0.061,0.167-0.104,0.252c-0.011,0.018-0.018,0.035-0.027,0.054c-0.057,0.099-0.125,0.194-0.205,0.29
					c-0.018,0.021-0.037,0.043-0.057,0.063c-0.076,0.087-0.166,0.174-0.264,0.261c-0.014,0.012-0.024,0.021-0.037,0.035
					c-0.109,0.092-0.236,0.184-0.371,0.272c-0.037,0.025-0.076,0.051-0.114,0.075c-0.11,0.069-0.229,0.137-0.352,0.204
					c-0.05,0.026-0.096,0.053-0.146,0.08c-0.134,0.066-0.275,0.132-0.422,0.198c-0.058,0.022-0.107,0.05-0.166,0.075
					c-0.214,0.089-0.438,0.175-0.681,0.26l-23.19,8.023c-0.22,0.076-0.47,0.133-0.699,0.198c-0.342,0.101-0.68,0.201-1.047,0.281
					c-0.441,0.099-0.9,0.183-1.371,0.255c-0.287,0.044-0.583,0.076-0.876,0.11c-0.366,0.043-0.729,0.09-1.103,0.116
					c-0.075,0.007-0.149,0.013-0.228,0.018c-0.596,0.041-1.197,0.063-1.801,0.066c-0.015,0-0.026,0-0.04,0
					c-0.632,0.003-1.266-0.015-1.887-0.055c-0.009,0-0.017,0-0.021-0.001c-0.624-0.039-1.236-0.099-1.829-0.18
					c-0.017-0.001-0.03-0.003-0.045-0.005c-0.582-0.079-1.144-0.18-1.68-0.301c-0.021-0.003-0.036-0.006-0.055-0.01
					c-0.548-0.123-1.069-0.267-1.552-0.433l-22.839-7.823c-0.128-0.044-0.241-0.091-0.361-0.137
					c-0.105-0.041-0.221-0.079-0.319-0.122c-0.108-0.045-0.2-0.093-0.301-0.141c-0.094-0.045-0.197-0.088-0.284-0.134
					c-0.087-0.045-0.158-0.092-0.238-0.138c-0.087-0.051-0.18-0.102-0.26-0.151c-0.069-0.046-0.127-0.095-0.19-0.142
					c-0.072-0.053-0.151-0.104-0.216-0.159c-0.063-0.053-0.108-0.107-0.164-0.162c-0.051-0.051-0.108-0.1-0.151-0.149
					c-0.056-0.064-0.097-0.133-0.142-0.196c-0.025-0.041-0.063-0.081-0.086-0.122c-0.029-0.053-0.045-0.107-0.067-0.16
					c-0.068-0.164-0.116-0.327-0.116-0.492l0.081,10.216c0,0.164,0.049,0.327,0.117,0.492c0.021,0.054,0.037,0.107,0.067,0.16
					c0.021,0.041,0.059,0.081,0.087,0.122c0.044,0.066,0.083,0.131,0.141,0.197c0.036,0.045,0.088,0.087,0.132,0.131
					c0.06,0.061,0.114,0.121,0.186,0.181c0.044,0.037,0.101,0.073,0.148,0.11c0.082,0.063,0.161,0.129,0.258,0.19
					c0.059,0.039,0.13,0.074,0.192,0.113c0.101,0.06,0.193,0.117,0.303,0.175c0.064,0.033,0.141,0.064,0.206,0.098
					c0.124,0.061,0.244,0.121,0.382,0.179c0.084,0.034,0.179,0.066,0.267,0.101c0.133,0.053,0.261,0.104,0.404,0.153
					c0.002,0.001,0.005,0.002,0.009,0.003l22.84,7.823c0.256,0.088,0.525,0.17,0.801,0.247c0.229,0.062,0.462,0.121,0.701,0.175
					c0.019,0.005,0.034,0.007,0.051,0.012c0.017,0.003,0.033,0.006,0.052,0.011c0.179,0.04,0.36,0.077,0.547,0.113
					c0.204,0.041,0.412,0.076,0.621,0.109c0.169,0.027,0.341,0.052,0.513,0.075c0.017,0.002,0.029,0.005,0.044,0.007
					c0.018,0.001,0.034,0.004,0.051,0.007c0.199,0.026,0.399,0.05,0.604,0.073c0.199,0.021,0.401,0.04,0.604,0.057
					c0.189,0.017,0.379,0.03,0.57,0.042c0.007,0,0.015,0,0.021,0.002c0.009,0,0.017,0,0.023,0.001
					c0.209,0.014,0.419,0.023,0.629,0.031c0.215,0.009,0.431,0.015,0.647,0.019c0.196,0.003,0.393,0.006,0.59,0.003
					c0.011,0,0.021,0,0.035,0c0.012,0,0.027,0.003,0.042,0c0.232-0.001,0.468-0.006,0.7-0.013c0.259-0.008,0.516-0.018,0.771-0.033
					c0.096-0.005,0.189-0.015,0.286-0.021c0.077-0.006,0.153-0.013,0.229-0.018c0.144-0.011,0.284-0.02,0.424-0.032
					c0.231-0.02,0.449-0.06,0.677-0.085c0.296-0.035,0.589-0.066,0.879-0.111c0.082-0.012,0.171-0.019,0.253-0.031
					c0.336-0.057,0.668-0.118,0.989-0.188c0.044-0.009,0.083-0.023,0.127-0.032c0.367-0.084,0.709-0.186,1.054-0.285
					c0.178-0.052,0.378-0.09,0.547-0.146c0.049-0.019,0.099-0.034,0.146-0.052l23.19-8.025c0.231-0.08,0.448-0.161,0.651-0.246
					c0.01-0.004,0.018-0.009,0.026-0.013c0.063-0.024,0.115-0.054,0.175-0.078c0.115-0.054,0.237-0.104,0.345-0.158
					c0.023-0.012,0.045-0.024,0.068-0.036c0.052-0.027,0.1-0.054,0.146-0.081c0.068-0.036,0.141-0.072,0.204-0.109
					c0.052-0.031,0.097-0.063,0.146-0.095c0.039-0.024,0.079-0.049,0.117-0.073c0.024-0.019,0.053-0.033,0.076-0.051
					c0.1-0.069,0.193-0.141,0.277-0.212c0.006-0.004,0.012-0.009,0.016-0.014c0.014-0.011,0.025-0.024,0.039-0.034
					c0.063-0.054,0.121-0.106,0.174-0.161c0.033-0.032,0.061-0.064,0.089-0.1c0.021-0.021,0.039-0.042,0.059-0.063
					c0.014-0.016,0.027-0.031,0.043-0.048c0.055-0.071,0.104-0.143,0.147-0.215c0.007-0.009,0.009-0.018,0.013-0.025
					c0.012-0.019,0.019-0.036,0.027-0.056c0.024-0.047,0.052-0.093,0.07-0.14c0.015-0.037,0.022-0.074,0.034-0.111
					c0.008-0.025,0.016-0.049,0.021-0.074c0.005-0.016,0.013-0.028,0.015-0.046c0.019-0.081,0.026-0.161,0.027-0.245
					c0-0.006,0-0.012,0-0.02L1378.144,279.301z"/>
				<g>
					<path fill="#F76D59" d="M1375.256,276.902c3.898,1.336,3.841,3.532-0.119,4.903l-23.19,8.023
						c-3.959,1.371-10.33,1.4-14.23,0.063l-22.839-7.823c-3.899-1.335-3.86-3.532,0.1-4.903l23.192-8.024
						c3.961-1.371,10.347-1.398,14.247-0.063L1375.256,276.902z"/>
				</g>
			</g>
			<g>
				<path fill="#2F487A" d="M1459.061,318.968c0,0.104-0.016,0.207-0.041,0.311c-0.006,0.024-0.016,0.049-0.021,0.074
					c-0.026,0.084-0.062,0.168-0.104,0.252c-0.01,0.019-0.017,0.036-0.026,0.054c-0.058,0.098-0.126,0.194-0.205,0.29
					c-0.019,0.021-0.037,0.043-0.059,0.063c-0.078,0.088-0.164,0.175-0.264,0.26c-0.013,0.013-0.022,0.021-0.035,0.034
					c-0.111,0.094-0.237,0.186-0.37,0.275c-0.038,0.025-0.078,0.05-0.117,0.075c-0.108,0.067-0.227,0.136-0.352,0.203
					c-0.048,0.025-0.095,0.053-0.146,0.079c-0.132,0.066-0.274,0.134-0.421,0.198c-0.058,0.023-0.107,0.051-0.167,0.075
					c-0.212,0.089-0.438,0.175-0.678,0.261l-23.193,8.024c-0.218,0.076-0.468,0.131-0.698,0.197c-0.342,0.1-0.681,0.201-1.046,0.282
					c-0.441,0.099-0.902,0.183-1.372,0.253c-0.287,0.044-0.583,0.078-0.877,0.111c-0.363,0.042-0.728,0.09-1.101,0.116
					c-0.076,0.006-0.151,0.014-0.228,0.017c-0.598,0.042-1.198,0.065-1.802,0.067c-0.015,0-0.027,0-0.04,0
					c-0.634,0.004-1.266-0.016-1.888-0.054c-0.007,0-0.015,0-0.021-0.002c-0.622-0.039-1.235-0.1-1.831-0.179
					c-0.016-0.002-0.026-0.005-0.043-0.007c-0.58-0.079-1.145-0.18-1.682-0.299c-0.017-0.004-0.033-0.006-0.052-0.012
					c-0.549-0.122-1.07-0.269-1.553-0.432l-22.839-7.823c-0.128-0.043-0.24-0.092-0.36-0.137c-0.105-0.041-0.221-0.079-0.319-0.122
					c-0.107-0.046-0.2-0.094-0.301-0.14c-0.096-0.046-0.198-0.09-0.286-0.135c-0.086-0.045-0.158-0.092-0.237-0.139
					c-0.087-0.051-0.181-0.1-0.259-0.15c-0.069-0.046-0.129-0.095-0.19-0.142c-0.071-0.055-0.152-0.104-0.216-0.159
					c-0.063-0.053-0.11-0.107-0.164-0.162c-0.051-0.051-0.109-0.099-0.151-0.15c-0.057-0.063-0.098-0.132-0.141-0.196
					c-0.028-0.041-0.064-0.08-0.087-0.121c-0.03-0.055-0.045-0.107-0.067-0.161c-0.069-0.163-0.115-0.326-0.117-0.491l0.081,10.216
					c0.001,0.165,0.048,0.328,0.116,0.492c0.023,0.053,0.039,0.107,0.068,0.16c0.022,0.041,0.06,0.082,0.086,0.123
					c0.045,0.063,0.085,0.131,0.141,0.196c0.039,0.045,0.09,0.088,0.133,0.132c0.062,0.059,0.114,0.12,0.187,0.181
					c0.044,0.037,0.1,0.072,0.146,0.109c0.084,0.063,0.165,0.129,0.26,0.191c0.06,0.038,0.131,0.073,0.193,0.112
					c0.1,0.059,0.192,0.117,0.303,0.176c0.063,0.032,0.139,0.063,0.205,0.097c0.123,0.059,0.244,0.119,0.381,0.179
					c0.083,0.034,0.181,0.064,0.269,0.101c0.132,0.054,0.26,0.104,0.404,0.153c0.002,0.001,0.006,0.003,0.007,0.004l22.841,7.823
					c0.257,0.087,0.522,0.17,0.801,0.247c0.229,0.062,0.462,0.119,0.702,0.175c0.017,0.003,0.034,0.007,0.051,0.011
					c0.016,0.004,0.033,0.007,0.049,0.01c0.182,0.04,0.362,0.078,0.548,0.115c0.203,0.038,0.412,0.075,0.621,0.108
					c0.17,0.026,0.342,0.052,0.516,0.075c0.015,0.002,0.027,0.004,0.044,0.006c0.015,0.003,0.032,0.005,0.049,0.009
					c0.198,0.026,0.401,0.049,0.604,0.07c0.198,0.021,0.401,0.042,0.605,0.06c0.188,0.015,0.378,0.029,0.569,0.041
					c0.009,0,0.015,0,0.021,0c0.01,0.003,0.018,0.003,0.025,0.004c0.208,0.012,0.418,0.022,0.63,0.029
					c0.215,0.01,0.431,0.015,0.646,0.02c0.196,0.003,0.394,0.004,0.591,0.003c0.012,0,0.022,0,0.035,0c0.014,0,0.027,0.001,0.042,0
					c0.234-0.002,0.469-0.006,0.701-0.013c0.258-0.007,0.515-0.019,0.771-0.032c0.097-0.007,0.19-0.016,0.287-0.021
					c0.076-0.006,0.152-0.013,0.229-0.019c0.142-0.011,0.285-0.019,0.424-0.031c0.23-0.021,0.447-0.059,0.676-0.085
					c0.297-0.034,0.59-0.066,0.878-0.111c0.084-0.014,0.172-0.02,0.256-0.032c0.335-0.056,0.666-0.118,0.986-0.188
					c0.047-0.01,0.083-0.022,0.128-0.032c0.369-0.083,0.711-0.185,1.053-0.285c0.179-0.052,0.377-0.09,0.548-0.146
					c0.049-0.016,0.098-0.031,0.146-0.05l23.19-8.024c0.23-0.08,0.448-0.162,0.651-0.247c0.009-0.004,0.018-0.01,0.025-0.013
					c0.063-0.024,0.115-0.054,0.174-0.077c0.117-0.055,0.236-0.104,0.346-0.159c0.024-0.013,0.045-0.025,0.068-0.037
					c0.052-0.026,0.099-0.053,0.147-0.079c0.069-0.037,0.14-0.073,0.204-0.11c0.052-0.031,0.098-0.063,0.146-0.095
					c0.038-0.025,0.078-0.049,0.115-0.074c0.025-0.017,0.053-0.032,0.077-0.049c0.099-0.07,0.192-0.141,0.276-0.213
					c0.006-0.003,0.012-0.009,0.018-0.014c0.014-0.013,0.023-0.023,0.037-0.034c0.061-0.055,0.121-0.106,0.175-0.161
					c0.032-0.032,0.062-0.066,0.089-0.101c0.02-0.021,0.038-0.043,0.057-0.063c0.013-0.016,0.029-0.032,0.043-0.049
					c0.057-0.07,0.105-0.144,0.148-0.214c0.004-0.009,0.006-0.018,0.012-0.027c0.013-0.019,0.021-0.035,0.028-0.054
					c0.025-0.046,0.052-0.093,0.071-0.141c0.014-0.037,0.021-0.073,0.034-0.11c0.006-0.026,0.015-0.05,0.021-0.073
					c0.002-0.016,0.01-0.03,0.014-0.047c0.018-0.081,0.025-0.162,0.025-0.244c0-0.007,0-0.014,0-0.02L1459.061,318.968z"/>
				<g>
					<path fill="#6AA3E6" d="M1456.172,316.569c3.898,1.336,3.842,3.532-0.117,4.903l-23.193,8.024
						c-3.959,1.371-10.329,1.398-14.229,0.063l-22.839-7.823c-3.9-1.336-3.859-3.532,0.101-4.903l23.191-8.023
						c3.96-1.371,10.348-1.4,14.248-0.063L1456.172,316.569z"/>
				</g>
			</g>
			<g>
				<polygon fill="#F4F4F4" points="1233.979,286.933 1234.796,300.481 1241.038,324.515 1249.152,322.017 1240.28,298.977 
					1238.796,286.377 				"/>
				
					<linearGradient id="SVGID_6_" gradientUnits="userSpaceOnUse" x1="-1173.1733" y1="142.4316" x2="-1175.2664" y2="105.9541" gradientTransform="matrix(1 0 0 -1 2422.5264 502)">
					<stop  offset="0.0033" style="stop-color:#192B4F"/>
					<stop  offset="0.9896" style="stop-color:#2F487A"/>
				</linearGradient>
				<polygon fill="url(#SVGID_6_)" points="1240.589,348.749 1245.094,387.564 1250.087,418.775 1240.725,420.024 1241.458,422.648 
					1255.118,422.648 1253.796,387.398 1257.762,347.301 				"/>
				<polygon fill="#2F487A" points="1243.845,347.926 1261.948,388.188 1281.921,410.661 1281.298,419.088 1277.553,421.896 
					1283.794,421.896 1286.292,408.788 1265.38,381.009 1262.274,346.854 				"/>
				<polygon fill="#F76D59" points="1238.796,286.377 1236.775,273.912 1234.223,274.229 1233.979,286.933 				"/>
				<g>
					<path fill="#F76D59" d="M1248.65,298.016c-7.114,0.919-8.817,6.844-7.812,11.448c1.008,4.605,5.154,8.966,12.033,7.861
						c6.932-1.112,6.881-8.176,5.939-12.795C1258.059,300.836,1253.325,297.412,1248.65,298.016z"/>
					<path fill="#1F1F89" d="M1253.13,305.185c-2.307-0.698-4.332-2.598-5.122-4.873c-0.203-0.585-0.243-1.322-0.15-2.037
						c0.265-0.085,0.515-0.198,0.792-0.26c4.605-1.007,10.417,2.178,11.291,8.072c0.715,4.816-1.165,9.59-6.113,10.921
						C1254.577,315.515,1253.13,305.185,1253.13,305.185z"/>
					<path fill="#F76D59" d="M1251.7,308.742c-0.117,0.529-0.179,1.081-0.074,1.615c0.104,0.533,0.395,1.048,0.857,1.331
						c0.48,0.294,1.077,0.312,1.635,0.258c0.646-0.063,1.291-0.211,1.861-0.519c1.77-0.95,2.473-3.953,0.471-5.046
						c-0.623-0.34-1.347-0.515-2.048-0.41C1253.136,306.158,1251.967,307.53,1251.7,308.742z"/>
					
						<ellipse transform="matrix(-0.9368 -0.3498 0.3498 -0.9368 2304.6111 1020.9517)" fill="#F7F5EF" cx="1244.511" cy="302.338" rx="2.461" ry="3.262"/>
				</g>
				<circle fill="#8E574A" cx="1235.339" cy="272.476" r="2.873"/>
				<path fill="#F7F5EF" d="M1223.561,294.695c1.045,5.611,3.459,10.875,7.022,15.331l8.672,10.838l0.771,30.513l23.354-2.202
					l-7.467-27.691l-10.049-6.787l-8.162-7.93c-3.898-3.788-6.854-8.438-8.627-13.573l-4.361-1.441L1223.561,294.695z"/>
				<path fill="#3791F4" d="M1203.575,232.791v32.549c0,5.559,4.508,10.067,10.068,10.067h32.549
					c5.559,0,10.067-4.508,10.067-10.067v-32.549c0-5.56-4.507-10.067-10.067-10.067h-32.549
					C1208.083,222.724,1203.575,227.231,1203.575,232.791z"/>
				<circle fill="#F76D59" cx="1220.985" cy="274.398" r="2.873"/>
				<polygon fill="#F76D59" points="1222.464,274.963 1219.169,275.711 1223.788,296.752 1229.532,294.713 				"/>
				<circle fill="#F7F5EF" cx="1230.516" cy="248.361" r="12.425"/>
				
					<line opacity="0.5" fill="none" stroke="#0A5DE2" stroke-width="2" stroke-linecap="round" stroke-miterlimit="10" enable-background="new    " x1="1194.176" y1="422.384" x2="1297.551" y2="422.384"/>
			</g>
			<g>
				<polygon fill="#F76D59" points="1527.731,388.334 1526.19,367.008 1528.573,351.311 1536.675,305.053 1532.763,304.495 
					1523.819,345.297 1509.849,346.414 1495.314,305.053 1491.401,305.612 1502.021,349.768 1505.748,366.645 1505.312,387.215 				
					"/>
				<polygon fill="#1F1F89" points="1508.478,331.321 1507.099,343.516 1515.4,344.178 1520.477,331.321 				"/>
				<circle fill="#F7F5EF" cx="1515.401" cy="335.795" r="8.384"/>
				<path fill="#2F487A" d="M1530.898,253.508h-32.55c-5.56,0-10.067,4.508-10.067,10.067v32.55c0,5.559,4.509,10.066,10.067,10.066
					h32.55c5.561,0,10.066-4.51,10.066-10.066v-32.55C1540.966,258.016,1536.459,253.508,1530.898,253.508z"/>
				<path fill="#1F1F89" d="M1518.479,335.236c0.165,0.079,0.354,0.154,0.521,0.088c0.171-0.064,0.258-0.247,0.369-0.392
					c0.436-0.567,1.389-0.566,1.896-0.063c0.509,0.504,0.558,1.363,0.206,1.985c-0.353,0.622-1.038,1.01-1.745,1.116
					c-0.466,1.658-0.656,3.395-0.564,5.115c1.15,0.084,2.302,0.17,3.454,0.254c0.224,0.017,0.47,0.026,0.646-0.11
					c0.167-0.129,0.226-0.351,0.271-0.558c0.43-1.974,0.645-3.996,0.641-6.017c-0.005-1.969-0.238-4.011-1.256-5.698
					c-1.217-2.019-6.208-5.34-8.643-3.479C1511.591,329.532,1516.622,334.344,1518.479,335.236z"/>
				<path fill="#1F1F89" d="M1511.534,332.352c-1.419,1.39-3.261,2.449-5.243,2.535c-0.09-2.215,0.882-4.451,2.566-5.896
					c0.944-0.812,4.126-2.604,5.428-1.743C1515.633,328.141,1512.493,331.412,1511.534,332.352z"/>
				
					<linearGradient id="SVGID_7_" gradientUnits="userSpaceOnUse" x1="1481.4648" y1="89.6489" x2="1531.6318" y2="89.6489" gradientTransform="matrix(1 0 0 -1 0 502)">
					<stop  offset="0.0033" style="stop-color:#192B4F"/>
					<stop  offset="0.9896" style="stop-color:#2F487A"/>
				</linearGradient>
				<polygon fill="url(#SVGID_7_)" points="1526.915,373.205 1505.54,372.207 1489.096,445.861 1481.465,441.217 1490.755,452.495 
					1512.65,391.785 1512.318,419.32 1527.165,438.991 1528.112,446.091 1528.506,449.109 1531.151,448.797 1531.632,437.975 
					1520.14,419.288 1528.249,388.354 				"/>
				<polygon fill="#F7F5EF" points="1528.267,325.01 1532.896,326.633 1536.675,305.053 1532.763,304.495 				"/>
				<polygon fill="#F7F5EF" points="1501.315,322.131 1495.89,324.273 1491.401,305.612 1495.314,305.053 				"/>
				<polygon fill="#F7F5EF" points="1519.448,345.645 1515.437,352.768 1513.417,346.129 				"/>
				<circle fill="#F7F5EF" cx="1493.005" cy="302.818" r="3.354"/>
				<circle fill="#F7F5EF" cx="1535.104" cy="303.446" r="3.354"/>
				
					<linearGradient id="SVGID_8_" gradientUnits="userSpaceOnUse" x1="1508.2979" y1="117.1895" x2="1496.6262" y2="88.01" gradientTransform="matrix(1 0 0 -1 0 502)">
					<stop  offset="0.0033" style="stop-color:#192B4F"/>
					<stop  offset="0.9896" style="stop-color:#2F487A"/>
				</linearGradient>
				<path fill="url(#SVGID_8_)" d="M1506.628,408.48l5.164-14.316l0.482-4.549l-6.734-17.408l-7.143,31.992
					C1501.452,405.833,1504.437,407.368,1506.628,408.48z"/>
				
					<line opacity="0.5" fill="none" stroke="#0A5DE2" stroke-width="2" stroke-linecap="round" stroke-miterlimit="10" enable-background="new    " x1="1462.131" y1="451.135" x2="1565.505" y2="451.135"/>
				<g>
					<g id="_x33_56._Play">
						<g>
							<path fill="#44E2FC" d="M1529.621,270.844c-4.827-8.361-15.518-11.226-23.878-6.397c-8.36,4.826-11.226,15.517-6.397,23.877
								c4.826,8.36,15.517,11.226,23.877,6.398C1531.583,289.894,1534.449,279.203,1529.621,270.844z M1521.475,291.693
								c-6.688,3.862-15.24,1.57-19.102-5.119c-3.862-6.688-1.569-15.24,5.118-19.101c6.688-3.862,15.241-1.57,19.103,5.118
								S1528.163,287.831,1521.475,291.693z M1520.776,278.873l-9.153-5.338c-0.834-0.487-1.507-0.098-1.502,0.867l0.047,10.596
								c0.004,0.965,0.685,1.357,1.521,0.874l9.083-5.244C1521.608,280.146,1521.609,279.36,1520.776,278.873z"/>
						</g>
					</g>
				</g>
			</g>
		</g>
		<g>
			<path fill="#FFFFFF" d="M541.57,72.89c0,0,3.243-13.785,22.299-11.353c0,0,4.771-14.914,23.922-13.379
				c19.586,1.569,20.678,15.812,20.678,15.812s10.946-4.865,18.244-0.405c7.299,4.46,9.326,9.325,9.326,9.325H541.57z"/>
			<path fill="#FFFFFF" d="M709.964,49.846c0,0,0.959-4.832,6.593-3.979c0,0,1.438-5.542,7.073-4.689
				c5.634,0.854,6.113,5.542,6.113,5.542s3.235-1.705,5.395-0.142c2.157,1.563,2.757,3.269,2.757,3.269L709.964,49.846
				L709.964,49.846z"/>
			<path fill="#FFFFFF" d="M835.894,74.506c0,0,1.875-9.447,12.892-7.78c0,0,2.813-10.837,13.829-9.169
				c11.016,1.667,11.953,10.836,11.953,10.836s6.327-3.334,10.547-0.278c4.219,3.056,5.391,6.391,5.391,6.391H835.894z"/>
		</g>
		<g>
			<path fill="#93B9E9" d="M98.991,254.006l-0.027,0.002c3.425-3.578,1.813-7.529,1.193-8.732c-0.001-0.002-0.003-0.004-0.005-0.006
				c-0.119-0.231-0.205-0.371-0.205-0.371l0.031,0.007c-0.992-1.956-1.563-4.162-1.563-6.507c0-3.984,1.615-7.59,4.225-10.2
				c2.397-3.175,0.582-7.396,0.582-7.396h0.006c-0.375-1.062-0.59-2.2-0.59-3.39c0-5.633,4.566-10.2,10.201-10.2
				c5.633,0,10.2,4.566,10.2,10.2c0,1.19-0.214,2.328-0.589,3.39h0.005c0,0-1.815,4.222,0.584,7.396
				c2.608,2.61,4.226,6.216,4.226,10.2c0,2.342-0.57,4.548-1.563,6.502l0.01-0.002c0,0-0.02,0.028-0.045,0.074
				c-0.081,0.158-0.163,0.317-0.25,0.475c-0.641,1.322-1.875,4.857,0.947,8.17c0.086,0.104,0.176,0.203,0.261,0.308
				c0.026,0.027,0.044,0.056,0.069,0.084l-0.008-0.001c2.44,3.041,3.908,6.896,3.908,11.1c0,9.808-7.951,17.757-17.757,17.757
				c-9.807,0-17.757-7.949-17.757-17.757C95.083,260.902,96.551,257.048,98.991,254.006z"/>
			<path fill="#2D61BB" d="M107.62,263.587l4.351,4.304v-15.119l-5.342-5.285c-0.277-0.272-0.279-0.719-0.006-0.996
				s0.721-0.279,0.997-0.006l4.351,4.303V229.93c0-0.39,0.313-0.705,0.704-0.705c0.392,0,0.705,0.315,0.705,0.705v12.57l4.229-4.206
				c0.277-0.272,0.722-0.272,0.998,0.003c0.273,0.276,0.273,0.723-0.002,0.998l-5.226,5.193v15.186l4.675-4.722
				c0.273-0.277,0.719-0.279,0.998-0.006c0.276,0.273,0.279,0.721,0.006,0.997l-5.679,5.734v40.286c0,0.39-0.313,0.705-0.705,0.705
				c-0.391,0-0.704-0.315-0.704-0.705v-32.089l-5.342-5.285c-0.277-0.273-0.279-0.721-0.006-0.997
				C106.896,263.314,107.343,263.314,107.62,263.587z"/>
			
				<path fill="none" stroke="#6AA3E6" stroke-width="1.8871" stroke-linecap="round" stroke-linejoin="round" stroke-miterlimit="10" d="
				M101.912,302.366h15.592H101.912z"/>
		</g>
		<g>
			<path fill="#93B9E9" d="M139.99,277.742l-0.036,0.002c4.558-4.762,2.413-10.02,1.588-11.62c-0.002-0.003-0.003-0.006-0.005-0.009
				c-0.159-0.309-0.273-0.492-0.273-0.492l0.041,0.008c-1.32-2.604-2.08-5.539-2.08-8.658c0-5.302,2.148-10.1,5.621-13.572
				c3.191-4.227,0.776-9.842,0.776-9.842h0.007c-0.498-1.414-0.783-2.928-0.783-4.512c0-7.496,6.076-13.572,13.573-13.572
				c7.495,0,13.572,6.076,13.572,13.572c0,1.584-0.285,3.098-0.784,4.512h0.007c0,0-2.415,5.615,0.777,9.842
				c3.473,3.474,5.622,8.271,5.622,13.572c0,3.116-0.76,6.051-2.078,8.653l0.014-0.003c0,0-0.023,0.038-0.06,0.098
				c-0.108,0.213-0.218,0.424-0.333,0.631c-0.854,1.763-2.495,6.465,1.26,10.873c0.115,0.137,0.234,0.271,0.348,0.408
				c0.035,0.036,0.061,0.074,0.094,0.111l-0.01-0.001c3.246,4.047,5.198,9.177,5.198,14.771c0,13.049-10.579,23.627-23.627,23.627
				c-13.05,0-23.629-10.578-23.629-23.627C134.79,286.92,136.743,281.789,139.99,277.742z"/>
			<path fill="#2D61BB" d="M151.471,290.491l5.788,5.727v-20.12l-7.106-7.031c-0.368-0.363-0.373-0.957-0.008-1.326
				c0.364-0.369,0.959-0.371,1.326-0.008l5.788,5.726v-27.753c0-0.52,0.419-0.938,0.938-0.938c0.519,0,0.938,0.42,0.938,0.938
				v16.727l5.629-5.598c0.367-0.364,0.961-0.364,1.326,0.004s0.365,0.961-0.003,1.328l-6.952,6.911v20.207l6.223-6.284
				c0.363-0.369,0.957-0.372,1.326-0.008c0.368,0.365,0.373,0.959,0.008,1.328l-7.555,7.631v53.605c0,0.519-0.42,0.938-0.938,0.938
				s-0.938-0.421-0.938-0.938v-42.699l-7.107-7.031c-0.367-0.364-0.373-0.959-0.008-1.327
				C150.509,290.129,151.104,290.128,151.471,290.491z"/>
			
				<path fill="none" stroke="#6AA3E6" stroke-width="1.8871" stroke-linecap="round" stroke-linejoin="round" stroke-miterlimit="10" d="
				M143.876,342.093h20.747H143.876z"/>
		</g>
		<g>
			<path fill="#FFFFFF" d="M36.061,151.675c0,0,2.742-11.654,18.852-9.597c0,0,4.035-12.608,20.223-11.311
				c16.559,1.327,17.48,13.367,17.48,13.367s9.254-4.113,15.423-0.342c6.17,3.77,7.884,7.883,7.884,7.883H36.061z"/>
			<path fill="#FFFFFF" d="M178.417,132.194c0,0,0.812-4.084,5.573-3.364c0,0,1.216-4.686,5.979-3.964
				c4.764,0.721,5.168,4.685,5.168,4.685s2.736-1.441,4.561-0.12c1.824,1.322,2.33,2.763,2.33,2.763H178.417z"/>
			<path fill="#FFFFFF" d="M284.876,153.042c0,0,1.585-7.986,10.897-6.577c0,0,2.377-9.162,11.69-7.752
				c9.313,1.409,10.104,9.161,10.104,9.161s5.35-2.818,8.916-0.234c3.565,2.584,4.558,5.402,4.558,5.402H284.876z"/>
		</g>
		<g>
			<g>
				<path fill="#FFFFFF" d="M562.932,161.037l-2.63-0.446c-0.272-0.884-0.626-1.738-1.057-2.552l1.55-2.168
					c0.657-0.924,0.556-2.184-0.251-2.983l-2.332-2.333c-0.438-0.438-1.018-0.681-1.637-0.681c-0.484,0-0.946,0.149-1.337,0.431
					l-2.178,1.549c-0.846-0.446-1.729-0.813-2.646-1.088l-0.438-2.599c-0.188-1.119-1.15-1.934-2.285-1.934h-3.297
					c-1.134,0-2.097,0.814-2.284,1.934l-0.454,2.661c-0.876,0.274-1.729,0.634-2.544,1.073l-2.152-1.55
					c-0.391-0.282-0.86-0.431-1.347-0.431c-0.618,0-1.205,0.243-1.637,0.681l-2.34,2.333c-0.798,0.798-0.908,2.059-0.251,2.982
					l1.565,2.2c-0.432,0.822-0.774,1.675-1.041,2.56l-2.6,0.439c-1.118,0.188-1.934,1.15-1.934,2.285v3.296
					c0,1.134,0.814,2.097,1.934,2.285l2.662,0.454c0.273,0.876,0.634,1.73,1.072,2.544l-1.543,2.145
					c-0.656,0.924-0.556,2.184,0.251,2.982l2.333,2.333c0.438,0.438,1.018,0.681,1.635,0.681c0.486,0,0.948-0.148,1.339-0.43
					l2.199-1.566c0.791,0.415,1.621,0.751,2.475,1.018l0.438,2.63c0.188,1.12,1.151,1.934,2.286,1.934h3.303
					c1.137,0,2.099-0.814,2.286-1.934l0.446-2.63c0.885-0.274,1.737-0.626,2.551-1.057l2.169,1.55
					c0.393,0.282,0.861,0.431,1.347,0.431l0,0c0.618,0,1.197-0.243,1.637-0.681l2.333-2.333c0.798-0.799,0.906-2.059,0.25-2.982
					l-1.55-2.176c0.43-0.822,0.79-1.675,1.057-2.552l2.63-0.438c1.12-0.188,1.934-1.151,1.934-2.286v-3.296
					C564.865,162.188,564.052,161.226,562.932,161.037z M562.752,166.619c0,0.102-0.07,0.188-0.172,0.204l-3.288,0.547
					c-0.414,0.071-0.743,0.376-0.845,0.775c-0.298,1.15-0.752,2.254-1.362,3.28c-0.212,0.36-0.196,0.806,0.047,1.15l1.934,2.724
					c0.056,0.078,0.048,0.196-0.022,0.266l-2.333,2.333c-0.055,0.055-0.109,0.063-0.147,0.063c-0.048,0-0.088-0.016-0.118-0.039
					l-2.717-1.934c-0.337-0.243-0.79-0.258-1.149-0.047c-1.025,0.61-2.129,1.064-3.279,1.362c-0.407,0.102-0.713,0.438-0.774,0.846
					l-0.557,3.287c-0.016,0.102-0.102,0.172-0.204,0.172h-3.295c-0.102,0-0.188-0.07-0.204-0.172l-0.547-3.287
					c-0.071-0.416-0.376-0.744-0.774-0.846c-1.119-0.29-2.2-0.736-3.209-1.315c-0.165-0.094-0.354-0.141-0.532-0.141
					c-0.212,0-0.432,0.063-0.61,0.196l-2.741,1.949c-0.038,0.023-0.076,0.039-0.116,0.039c-0.031,0-0.094-0.008-0.148-0.063
					l-2.332-2.333c-0.07-0.07-0.078-0.18-0.023-0.266l1.926-2.701c0.244-0.344,0.259-0.798,0.048-1.158
					c-0.611-1.018-1.081-2.121-1.378-3.271c-0.109-0.399-0.438-0.705-0.846-0.775l-3.312-0.563
					c-0.103-0.016-0.172-0.102-0.172-0.203v-3.296c0-0.102,0.069-0.188,0.172-0.204l3.264-0.547
					c0.415-0.071,0.752-0.376,0.854-0.783c0.291-1.15,0.735-2.262,1.339-3.288c0.212-0.36,0.188-0.806-0.054-1.143l-1.949-2.739
					c-0.056-0.078-0.048-0.195,0.022-0.267l2.332-2.333c0.057-0.055,0.109-0.063,0.149-0.063c0.047,0,0.085,0.016,0.117,0.04
					l2.7,1.925c0.344,0.243,0.798,0.258,1.157,0.047c1.019-0.611,2.121-1.081,3.272-1.378c0.398-0.109,0.704-0.438,0.773-0.845
					l0.564-3.313c0.016-0.102,0.102-0.172,0.203-0.172h3.296c0.101,0,0.187,0.071,0.202,0.172l0.549,3.265
					c0.07,0.415,0.375,0.751,0.782,0.853c1.182,0.297,2.31,0.759,3.357,1.377c0.36,0.211,0.808,0.196,1.151-0.047l2.699-1.941
					c0.04-0.023,0.079-0.039,0.118-0.039c0.03,0,0.094,0.008,0.147,0.063l2.333,2.333c0.07,0.071,0.078,0.18,0.022,0.267
					l-1.934,2.716c-0.242,0.336-0.259,0.791-0.047,1.15c0.61,1.025,1.064,2.129,1.362,3.279c0.102,0.408,0.438,0.713,0.845,0.775
					l3.288,0.556c0.103,0.016,0.172,0.102,0.172,0.203v3.296L562.752,166.619L562.752,166.619z"/>
				<path fill="#FFFFFF" d="M546.119,156.881c-4.463,0-8.086,3.625-8.086,8.086c0,4.462,3.623,8.086,8.086,8.086
					c4.461,0,8.086-3.624,8.086-8.086C554.205,160.505,550.58,156.881,546.119,156.881z M546.119,170.939
					c-3.296,0-5.975-2.677-5.975-5.973s2.679-5.973,5.975-5.973c3.295,0,5.972,2.677,5.972,5.973S549.414,170.939,546.119,170.939z"
					/>
			</g>
		</g>
		<g>
			<g>
				<g>
					<path fill="#FFFFFF" d="M490.389,222.904c-1.62-0.354-3.227,0.679-3.579,2.3s0.682,3.228,2.302,3.579s3.226-0.68,3.578-2.301
						C493.041,224.861,492.01,223.257,490.389,222.904z M489.467,227.143c-0.715-0.156-1.172-0.865-1.016-1.58
						c0.155-0.717,0.865-1.172,1.581-1.017c0.715,0.155,1.171,0.865,1.015,1.581C490.892,226.842,490.182,227.297,489.467,227.143z"
						/>
				</g>
			</g>
			<g>
				<g>
					<path fill="#FFFFFF" d="M500.697,225.146c-1.62-0.353-3.226,0.68-3.577,2.301c-0.354,1.619,0.679,3.226,2.299,3.578
						c1.621,0.353,3.226-0.68,3.578-2.299C503.35,227.105,502.319,225.5,500.697,225.146z M499.775,229.385
						c-0.716-0.156-1.172-0.865-1.016-1.58c0.155-0.716,0.864-1.172,1.58-1.017s1.172,0.864,1.016,1.582
						C501.201,229.085,500.491,229.541,499.775,229.385z"/>
				</g>
			</g>
			<g>
				<g>
					<path fill="#FFFFFF" d="M504.789,209.831l-11.76-2.559c-0.453-0.099-0.9,0.189-0.999,0.642c-0.1,0.453,0.188,0.901,0.643,1
						l11.759,2.558c0.453,0.099,0.899-0.189,0.998-0.643C505.528,210.377,505.242,209.93,504.789,209.831z"/>
				</g>
			</g>
			<g>
				<g>
					<path fill="#FFFFFF" d="M503.222,213.953l-10.479-2.28c-0.454-0.099-0.9,0.188-0.999,0.642c-0.1,0.454,0.188,0.901,0.642,1
						l10.479,2.28c0.453,0.099,0.899-0.188,0.999-0.642C503.963,214.5,503.675,214.051,503.222,213.953z"/>
				</g>
			</g>
			<g>
				<g>
					<path fill="#FFFFFF" d="M513.587,207.917c-0.229-0.452-0.645-0.773-1.14-0.881l-25.559-5.561l0.028-2.618
						c0.006-0.546-0.256-1.063-0.699-1.382l-3.261-2.347c-0.376-0.271-0.901-0.185-1.173,0.191s-0.186,0.901,0.191,1.172
						l3.262,2.347l-0.225,20.136c-0.009,0.793,0.548,1.491,1.323,1.66l19.657,4.277c0.453,0.099,0.898-0.188,0.998-0.642
						c0.099-0.455-0.188-0.9-0.642-1l-19.656-4.276l0.025-2.449l20.292,4.415c0.776,0.168,1.571-0.235,1.895-0.96l4.719-10.641
						C513.831,208.894,513.817,208.369,513.587,207.917z M507.371,219.317l-20.631-4.489l0.129-11.639l25.221,5.488L507.371,219.317
						z"/>
				</g>
			</g>
		</g>
		<g>
			<g id="Layer_1_43_">
				<g>
					<path fill="#FFFFFF" d="M500.59,315.875h-7.484c1.026,0.918,1.905,1.995,2.596,3.198h4.89c0.883,0,1.601-0.716,1.601-1.599
						C502.191,316.591,501.473,315.875,500.59,315.875z"/>
					<path fill="#FFFFFF" d="M500.59,319.908h-4.459c0.481,1.004,0.837,2.074,1.041,3.197h3.418c0.883,0,1.601-0.715,1.601-1.6
						C502.189,320.624,501.473,319.908,500.59,319.908z"/>
					<path fill="#FFFFFF" d="M500.59,311.842h-11.842c-0.688,0-1.271,0.438-1.496,1.049c1.771,0.375,3.4,1.125,4.82,2.151h8.518
						c0.885,0,1.602-0.716,1.602-1.601C502.191,312.559,501.473,311.842,500.59,311.842z"/>
					<path fill="#FFFFFF" d="M488.748,311.008h11.842c0.883,0,1.601-0.714,1.601-1.599c0-0.882-0.718-1.599-1.601-1.599h-11.842
						c-0.883,0-1.602,0.717-1.602,1.6C487.147,310.294,487.865,311.008,488.748,311.008z"/>
					<path fill="#FFFFFF" d="M500.59,323.939h-3.289c0.056,0.481,0.09,0.97,0.09,1.465c0,0.589-0.053,1.166-0.132,1.734h3.329
						c0.884,0,1.601-0.719,1.601-1.603C502.188,324.654,501.473,323.939,500.59,323.939z"/>
					<path fill="#FFFFFF" d="M500.59,327.973h-3.458c-0.23,1.131-0.622,2.198-1.129,3.197h4.587c0.883,0,1.601-0.716,1.601-1.6
						C502.189,328.688,501.473,327.973,500.59,327.973z"/>
					<path fill="#FFFFFF" d="M500.59,332.004h-5.053c-0.732,1.211-1.65,2.293-2.729,3.198h7.781c0.883,0,1.601-0.716,1.601-1.601
						C502.189,332.721,501.473,332.004,500.59,332.004z"/>
					<path fill="#FFFFFF" d="M468.6,326.871h3.289c-0.055-0.48-0.09-0.971-0.09-1.467c0-0.588,0.053-1.165,0.131-1.732h-3.33
						c-0.884,0.002-1.6,0.717-1.6,1.602C467,326.154,467.716,326.871,468.6,326.871z"/>
					<path fill="#FFFFFF" d="M468.6,330.902h4.458c-0.479-1.002-0.836-2.072-1.041-3.196H468.6c-0.884,0-1.6,0.714-1.6,1.599
						C467,330.188,467.716,330.902,468.6,330.902z"/>
					<path fill="#FFFFFF" d="M468.6,322.84h3.459c0.231-1.13,0.62-2.199,1.129-3.199H468.6c-0.884,0-1.6,0.715-1.6,1.601
						C467,322.124,467.716,322.84,468.6,322.84z"/>
					<path fill="#FFFFFF" d="M468.6,318.809h5.053c0.732-1.211,1.649-2.295,2.729-3.199H468.6c-0.884,0-1.6,0.717-1.6,1.6
						S467.716,318.809,468.6,318.809z"/>
					<path fill="#FFFFFF" d="M468.6,334.936h7.486c-1.028-0.918-1.907-1.994-2.597-3.197h-4.891c-0.884,0-1.6,0.717-1.6,1.599
						C467,334.221,467.716,334.936,468.6,334.936z"/>
					<path fill="#FFFFFF" d="M468.6,338.968h11.843c0.688,0,1.27-0.437,1.496-1.047c-1.771-0.375-3.4-1.126-4.819-2.151h-8.52
						c-0.884,0-1.6,0.715-1.6,1.601C467,338.253,467.716,338.968,468.6,338.968z"/>
					<path fill="#FFFFFF" d="M480.441,339.802H468.6c-0.884,0-1.6,0.716-1.6,1.601c0,0.883,0.716,1.599,1.6,1.599h11.843
						c0.884,0,1.6-0.716,1.6-1.601C482.041,340.518,481.325,339.802,480.441,339.802z"/>
					<path fill="#FFFFFF" d="M484.595,314.209c-6.174,0-11.195,5.021-11.195,11.196c0,6.174,5.021,11.196,11.195,11.196
						c6.175,0,11.195-5.021,11.195-11.196S490.77,314.209,484.595,314.209z M484.595,333.402c-4.41,0-7.997-3.588-7.997-7.998
						c0-4.409,3.587-7.997,7.997-7.997c4.411,0,7.998,3.588,7.998,7.997C492.593,329.814,489.006,333.402,484.595,333.402z"/>
					<path fill="#FFFFFF" d="M485.063,324.324v-2.764c1.608,0.029,1.597,1.584,2.543,1.584c0.492,0,0.918-0.332,0.918-0.898
						c0-1.426-2.328-2.139-3.461-2.169v-0.774c0-0.246-0.19-0.494-0.438-0.494c-0.246,0-0.435,0.248-0.435,0.494v0.774
						c-1.817,0.058-3.463,1.077-3.463,3.055c0,1.614,1.308,2.56,3.463,2.951v3.041c-2.418-0.103-1.15-2.108-2.779-2.108
						c-0.549,0-0.9,0.336-0.9,0.916c0,1.149,1.224,2.619,3.681,2.68v0.899c0,0.247,0.188,0.494,0.435,0.494
						c0.248,0,0.438-0.247,0.438-0.494v-0.899c2.165-0.131,3.618-1.123,3.618-3.07C488.681,325.299,486.981,324.732,485.063,324.324
						z M484.188,324.166c-1.091-0.221-1.632-0.641-1.632-1.37c0-0.624,0.642-1.206,1.632-1.235V324.166z M485.063,329.123v-2.879
						c0.781,0.173,1.789,0.464,1.789,1.453C486.852,328.656,485.933,329.064,485.063,329.123z"/>
				</g>
			</g>
		</g>
		<g>
			<g>
				<g>
					<path fill="#FFFFFF" d="M534.805,330.544c-0.503,0-0.912,0.407-0.912,0.909c0,0.504,0.409,0.91,0.912,0.91
						c0.501,0,0.909-0.406,0.909-0.91C535.714,330.951,535.306,330.544,534.805,330.544z"/>
				</g>
			</g>
			<g>
				<g>
					<path fill="#FFFFFF" d="M539.359,325.068c-0.501,0-0.909,0.406-0.909,0.908c0,0.506,0.408,0.912,0.909,0.912
						c0.505,0,0.91-0.406,0.91-0.912C540.271,325.477,539.864,325.068,539.359,325.068z"/>
				</g>
			</g>
			<g>
				<g>
					<path fill="#FFFFFF" d="M541.181,326.889c-0.502,0-0.909,0.406-0.909,0.911c0,0.501,0.407,0.909,0.909,0.909
						c0.503,0,0.909-0.408,0.909-0.909C542.09,327.295,541.684,326.889,541.181,326.889z"/>
				</g>
			</g>
			<g>
				<g>
					<path fill="#FFFFFF" d="M543.002,325.068c-0.503,0-0.912,0.406-0.912,0.908c0,0.506,0.409,0.912,0.912,0.912
						c0.502,0,0.91-0.406,0.91-0.912C543.912,325.477,543.504,325.068,543.002,325.068z"/>
				</g>
			</g>
			<g>
				<g>
					<path fill="#FFFFFF" d="M544.82,326.889c-0.501,0-0.908,0.406-0.908,0.911c0,0.501,0.407,0.909,0.908,0.909
						c0.505,0,0.912-0.408,0.912-0.909C545.732,327.295,545.325,326.889,544.82,326.889z"/>
				</g>
			</g>
			<g>
				<g>
					<path fill="#FFFFFF" d="M546.643,325.068c-0.503,0-0.909,0.406-0.909,0.908c0,0.506,0.406,0.912,0.909,0.912
						c0.504,0,0.909-0.406,0.909-0.912C547.552,325.477,547.146,325.068,546.643,325.068z"/>
				</g>
			</g>
			<g>
				<g>
					<path fill="#FFFFFF" d="M548.463,326.889c-0.503,0-0.911,0.406-0.911,0.911c0,0.501,0.408,0.909,0.911,0.909
						s0.91-0.408,0.91-0.909C549.373,327.295,548.965,326.889,548.463,326.889z"/>
				</g>
			</g>
			<g>
				<g>
					<path fill="#FFFFFF" d="M550.283,325.068c-0.502,0-0.91,0.406-0.91,0.908c0,0.506,0.408,0.912,0.91,0.912
						c0.504,0,0.91-0.406,0.91-0.912C551.193,325.477,550.787,325.068,550.283,325.068z"/>
				</g>
			</g>
			<g>
				<g>
					<path fill="#FFFFFF" d="M552.104,326.889c-0.503,0-0.91,0.406-0.91,0.911c0,0.501,0.407,0.909,0.91,0.909
						c0.504,0,0.909-0.408,0.909-0.909C553.014,327.295,552.607,326.889,552.104,326.889z"/>
				</g>
			</g>
			<g>
				<g>
					<path fill="#FFFFFF" d="M553.925,325.068c-0.503,0-0.911,0.406-0.911,0.908c0,0.506,0.408,0.912,0.911,0.912
						c0.502,0,0.91-0.406,0.91-0.912C554.835,325.477,554.427,325.068,553.925,325.068z"/>
				</g>
			</g>
			<g>
				<g>
					<path fill="#FFFFFF" d="M566.823,322.914c-1.578-1.443-4.313-1.489-9.662-1.489c-0.422-0.642-1.315-1.819-2.795-2.991
						c-1.298-1.029-3.241-2.188-5.904-2.848v-2.352c0-0.502-0.406-0.909-0.91-0.909h-7.293c-0.503,0-0.91,0.407-0.91,0.909v2.352
						c-2.664,0.658-4.608,1.816-5.909,2.846c-1.482,1.17-2.381,2.351-2.805,2.988h-1.069c-0.071-0.018-0.373-0.018-0.443,0h-1.599
						c-0.242,0-0.474,0.096-0.644,0.268l-1.821,1.819c-0.171,0.173-0.268,0.403-0.268,0.644v6.395c0,0.253,0.107,0.495,0.293,0.667
						c0.226,0.21,2.265,2.042,4.241,2.042h1.3c0.7,1.618,2.308,2.752,4.18,2.752c1.87,0,3.48-1.134,4.18-2.752h15.308
						c0.698,1.618,2.309,2.752,4.179,2.752c1.871,0,3.48-1.134,4.181-2.752h4.924c0.501,0,0.91-0.408,0.91-0.908
						C568.483,327.079,568.483,324.436,566.823,322.914z M553.166,319.805c0.722,0.563,1.285,1.131,1.705,1.615h-11.874v-4.529
						c0.296-0.014,0.599-0.021,0.91-0.021C547.555,316.869,550.669,317.855,553.166,319.805z M541.169,314.146L541.169,314.146
						h5.474v1.088c-0.851-0.118-1.763-0.186-2.734-0.186c-0.975,0-1.886,0.066-2.738,0.186L541.169,314.146L541.169,314.146z
						 M541.176,317.073v4.347h-8.251C534.195,319.964,536.786,317.749,541.176,317.073z M527.899,323.24h0.531v0.91h-1.442
						L527.899,323.24z M534.805,334.184c-1.506,0-2.729-1.224-2.729-2.729c0-1.507,1.225-2.729,2.729-2.729
						c1.504,0,2.731,1.225,2.731,2.729C537.536,332.96,536.309,334.184,534.805,334.184z M558.47,334.184
						c-1.505,0-2.73-1.224-2.73-2.729c0-1.507,1.227-2.729,2.73-2.729c1.506,0,2.73,1.225,2.73,2.729
						C561.2,332.96,559.976,334.184,558.47,334.184z M563.021,331.434L563.021,331.434c-0.01-2.5-2.048-4.531-4.552-4.531
						c-2.501,0-4.539,2.031-4.55,4.531h-14.564c-0.012-2.5-2.049-4.531-4.551-4.531c-2.504,0-4.541,2.031-4.553,4.531h-0.908
						c-0.003,0-0.005,0-0.009,0h-0.01c-0.896,0-2.091-0.81-2.712-1.31v-4.153h2.729c0.501,0,0.909-0.404,0.909-0.908v-1.821h0.89
						h25.435c0.022,0.003,0.051,0.004,0.076,0.004c4.871,0,7.633,0,8.814,0.905h-1.548c-0.503,0-0.91,0.408-0.91,0.912
						s0.407,0.908,0.91,0.908h2.468c0.245,1.234,0.271,3.023,0.273,5.463H563.021z"/>
				</g>
			</g>
			<g>
				<g>
					<path fill="#FFFFFF" d="M558.47,330.544c-0.502,0-0.909,0.407-0.909,0.909c0,0.504,0.407,0.91,0.909,0.91
						c0.504,0,0.912-0.406,0.912-0.91C559.382,330.951,558.974,330.544,558.47,330.544z"/>
				</g>
			</g>
		</g>
		<g>
			<g>
				<path fill="#6AA3E6" d="M463.741,258.414l-0.057-7.318c-0.004-0.633-0.727-1.16-1.575-1.154L454.354,250
					c-1.72,0.014-3.126-1.168-3.137-2.631l-0.021-2.506c-0.011-1.467,1.38-2.668,3.099-2.68l4.6-0.035l0.01,1.217l-4.601,0.035
					c-1.047,0.008-1.896,0.66-1.89,1.453l0.02,2.506c0.007,0.793,0.864,1.434,1.911,1.424l7.756-0.059
					c1.536-0.013,2.792,1.049,2.804,2.36l0.055,7.317L463.741,258.414z"/>
				<path fill="#2D61BB" d="M469.216,246.193l-11.592,0.088c-1.815,0.014-3.299-1.447-3.313-3.264l0,0
					c-0.014-1.816,1.448-3.302,3.265-3.314l11.592-0.088c1.816-0.014,3.3,1.447,3.313,3.264l0,0
					C472.493,244.695,471.032,246.18,469.216,246.193z"/>
				<path fill="#2F282F" d="M465.459,272.563l-2.209,0.017c-0.651,0.006-1.184-0.519-1.188-1.17l0.359-13.521
					c-0.005-0.649,0.52-1.182,1.17-1.188l1.285-0.01c0.651-0.004,1.183,0.52,1.188,1.17l0.563,13.514
					C466.634,272.025,466.11,272.557,465.459,272.563z"/>
			</g>
			<g>
				<g>
					<circle fill="#FE9764" cx="465.512" cy="265.673" r="4.192"/>
				</g>
				<rect x="413.916" y="274.455" fill="#FE9764" width="7.874" height="10.576"/>
				<g>
					<rect x="407.329" y="419.498" fill="#FE9764" width="5.252" height="5.285"/>
					<rect x="404.039" y="417.324" fill="#1C181C" width="10.959" height="4.018"/>
					<rect x="423.866" y="419.498" fill="#FE9764" width="5.252" height="5.285"/>
					<polygon fill="#2F487A" points="418.973,325.25 417.476,325.25 403.085,325.25 405.706,417.324 413.997,417.324 
						415.287,341.352 421.16,341.352 422.45,417.324 430.742,417.324 433.362,325.25 					"/>
					<rect x="421.449" y="417.324" fill="#1C181C" width="10.96" height="4.018"/>
				</g>
				<g>
					<circle fill="#FE9764" cx="407.398" cy="268.098" r="2.617"/>
					<circle fill="#FE9764" cx="428.43" cy="268.098" r="2.616"/>
					<circle fill="#2F282F" cx="417.905" cy="265.842" r="10.756"/>
				</g>
				<path fill="#73A3DC" d="M433.362,325.25h-30.276l-1.165-33.406c0-5.598,3.711-10.139,9.312-10.139h13.984
					c5.6,0,9.312,4.541,9.312,10.139L433.362,325.25z"/>
				<path fill="#73A3DC" d="M410.781,292.539l-18.559,21.645l0.847-1.608c0.118-0.354,0.106-0.943-0.063-1.347
					c-0.164-0.414-0.393-0.641-0.566-0.77c-0.344-0.244-0.664-0.246-0.888-0.174l0.709-0.156l15.577-2.18
					c2.504-0.352,4.818,1.395,5.169,3.898c0.352,2.506-1.396,4.817-3.899,5.17l-15.576,2.18l0.709-0.158
					c-2.321,0.715-5.033,0.385-7.16-1.154c-1.063-0.766-2.023-1.867-2.593-3.301c-0.585-1.42-0.642-3.168-0.208-4.572
					c0.178-0.578,0.451-1.102,0.801-1.555l0.044-0.057l18.323-23.029c1.792-2.318,4.233-2.27,6.552-0.479s2.744,5.121,0.953,7.438
					C410.899,292.398,410.835,292.477,410.781,292.539z"/>
				<g>
					<path fill="#2346AE" d="M448.947,290.279c0,0.008-0.004,0.014-0.004,0.021c0,0.046-0.012,0.086-0.002,0.132
						c0,0,0.006,0.039,0.007,0.014v-0.1L448.947,290.279z"/>
					<path fill="#2346AE" d="M450.516,289.098c-0.003,0-0.007,0-0.01,0l0.033,0.01C450.548,289.109,450.522,289.1,450.516,289.098z"
						/>
					<path fill="#73A3DC" d="M453.571,297.838c1.169-0.426,2.252-1.119,3.127-2.027c0.435-0.457,0.817-0.955,1.141-1.487
						c0.162-0.267,0.295-0.541,0.43-0.816l0.091-0.192l0.038-0.092l0.075-0.183l1.247-2.914l2.5-5.824
						c1.434-3.256,3.934-8.817,5.753-12.782c0.31-0.67-0.01-1.457-0.695-1.73l-6.358-2.539c-0.648-0.26-1.384,0.039-1.66,0.682
						c-1.72,3.988-4.161,9.412-5.572,12.611l-2.608,5.777l-2.688,5.738c0.547,3.528,3.463,2.563,4.279,6.057
						C452.975,298.039,453.277,297.947,453.571,297.838z M451.634,288.918c0.006,0.004,0.025,0.023,0.019,0.018l-0.025-0.022
						C451.628,288.914,451.632,288.916,451.634,288.918z"/>
					<path fill="#73A3DC" d="M451.293,289.344l-2.363-0.699l-0.961-0.274l-6.085-1.781c-4.058-1.187-12.917-4.101-13.049-4.129
						c-3.176-0.724-5.813,1.824-6.186,5.153c-0.313,2.804,1.696,5.349,4.446,5.974c4.061,0.922,8.119,1.849,12.163,2.828
						l6.162,1.489l1.539,0.38l0.77,0.19l0.507,0.119c0.306,0.063,0.607,0.129,0.921,0.162c2.206,0.279,4.485-0.406,6.186-1.762
						C453.125,294.174,453.281,292.311,451.293,289.344z M448.941,290.432c-0.01-0.045,0.002-0.086,0.002-0.131
						c0-0.008,0.004-0.014,0.004-0.021l0.001,0.066v0.1C448.947,290.471,448.941,290.432,448.941,290.432z"/>
				</g>
				<polygon fill="none" stroke="#BDD3EF" stroke-width="0.6348" stroke-miterlimit="10" points="421.682,329.752 429.855,329.752 
					429.855,335.152 425.769,338.084 421.682,335.252 				"/>
				<polygon fill="none" stroke="#BDD3EF" stroke-width="0.6348" stroke-miterlimit="10" points="406.592,329.752 414.766,329.752 
					414.766,335.152 410.679,338.084 406.592,335.252 				"/>
				<g>
					<path fill="#FFFFFF" d="M430.789,423.078l0.135,5.625c0,0,13.562,3.844,13.731,3.844s2.107,0.627,2.107,1.881
						c0,0-24.646,0.084-24.562,0c0.085-0.086-0.189-5.871-0.189-5.871S421.334,421.908,430.789,423.078z"/>
					<path fill="#FFFFFF" d="M432.859,431.863c0.32,0,0.595-0.246,0.624-0.57l-0.002-2.201c0.03-0.346-0.224-0.649-0.567-0.684
						c-0.357-0.035-0.651,0.225-0.682,0.567l0.001,2.201c-0.03,0.347,0.224,0.65,0.567,0.683
						C432.821,431.861,432.841,431.863,432.859,431.863z"/>
					<path fill="#FFFFFF" d="M435.438,432.412c0.319,0,0.594-0.244,0.623-0.57l-0.003-2.201c0.031-0.346-0.223-0.649-0.567-0.682
						c-0.334-0.039-0.649,0.225-0.682,0.568l0.002,2.2c-0.029,0.347,0.225,0.65,0.568,0.683
						C435.397,432.412,435.418,432.412,435.438,432.412z"/>
					<path fill="#FFFFFF" d="M437.982,433.123c0.319,0,0.595-0.244,0.624-0.57l-0.004-2.201c0.031-0.346-0.223-0.649-0.567-0.682
						c-0.331-0.031-0.649,0.223-0.682,0.568l0.003,2.201c-0.03,0.346,0.224,0.649,0.567,0.682
						C437.944,433.123,437.964,433.123,437.982,433.123z"/>
					<path fill="#2F282F" d="M422.202,434.428l0.988,0.992c0.497,0.502,1.176,0.783,1.882,0.783h18.975
						c0.793,0,1.544-0.354,2.048-0.965l0.669-0.812L422.202,434.428L422.202,434.428z"/>
				</g>
				<g>
					<path fill="#FFFFFF" d="M405.252,423.078l-0.135,5.625c0,0-13.561,3.844-13.73,3.844s-2.107,0.627-2.107,1.881
						c0,0,24.646,0.084,24.562,0c-0.086-0.086,0.189-5.871,0.189-5.871S414.707,421.908,405.252,423.078z"/>
					<path fill="#FFFFFF" d="M403.182,431.863c-0.319,0-0.594-0.246-0.623-0.57l0.001-2.201c-0.029-0.346,0.225-0.649,0.567-0.684
						c0.358-0.035,0.651,0.225,0.683,0.567l-0.002,2.201c0.031,0.347-0.223,0.65-0.566,0.683
						C403.221,431.861,403.201,431.863,403.182,431.863z"/>
					<path fill="#FFFFFF" d="M400.605,432.412c-0.321,0-0.596-0.244-0.624-0.57l0.002-2.201c-0.03-0.346,0.224-0.649,0.567-0.682
						c0.334-0.039,0.65,0.225,0.683,0.568l-0.003,2.2c0.03,0.347-0.224,0.65-0.568,0.683
						C400.644,432.412,400.624,432.412,400.605,432.412z"/>
					<path fill="#FFFFFF" d="M398.06,433.123c-0.32,0-0.595-0.244-0.624-0.57l0.003-2.201c-0.03-0.346,0.224-0.649,0.567-0.682
						c0.331-0.031,0.649,0.223,0.683,0.568l-0.004,2.201c0.031,0.346-0.223,0.649-0.567,0.682
						C398.098,433.123,398.078,433.123,398.06,433.123z"/>
					<path fill="#2F282F" d="M413.84,434.428l-0.989,0.992c-0.498,0.502-1.176,0.783-1.882,0.783h-18.975
						c-0.793,0-1.544-0.354-2.048-0.965l-0.668-0.812L413.84,434.428L413.84,434.428z"/>
				</g>
			</g>
			<g>
				<path fill="#FFFFFF" d="M377.669,436.34h-23.101c-0.883,0-1.601-0.717-1.601-1.602v-25.816c0-0.734,0.597-1.328,1.329-1.328
					h23.643c0.733,0,1.328,0.594,1.328,1.328v25.816C379.27,435.623,378.553,436.34,377.669,436.34z"/>
				<path fill="#6788BA" d="M379.27,411.262h-26.301v-2.34c0-0.734,0.596-1.328,1.329-1.328h23.642c0.734,0,1.33,0.594,1.33,1.328
					V411.262L379.27,411.262z"/>
				<path fill="#545054" d="M372.086,422.982h-12.342c-1.723,0-3.252-1.035-3.893-2.636l-2.84-8.418
					c-0.09-0.268,0.055-0.559,0.322-0.647c0.268-0.092,0.561,0.053,0.648,0.319l2.83,8.394c0.475,1.182,1.629,1.963,2.931,1.963
					h12.342c1.245,0,2.38-0.734,2.892-1.871l3.275-8.504c0.104-0.266,0.4-0.395,0.662-0.295c0.266,0.102,0.396,0.397,0.294,0.664
					l-3.287,8.529C375.236,422.01,373.734,422.982,372.086,422.982z"/>
				
					<line fill="none" stroke="#5882BF" stroke-width="2.7333" stroke-linecap="round" stroke-linejoin="round" stroke-miterlimit="10" x1="367.916" y1="409.428" x2="367.916" y2="417.068"/>
				
					<line fill="none" stroke="#5580BF" stroke-width="4.0999" stroke-linecap="round" stroke-linejoin="round" stroke-miterlimit="10" x1="370.439" y1="410.795" x2="370.439" y2="412.023"/>
			</g>
			
				<line fill="none" stroke="#B0D5F7" stroke-width="1.8871" stroke-linecap="round" stroke-linejoin="round" stroke-miterlimit="10" x1="342.386" y1="437.162" x2="461.985" y2="437.162"/>
		</g>
		<g>
			<path fill="#FFFFFF" d="M1196.57,72.476c0,0,3.243-13.785,22.299-11.354c0,0,4.771-14.914,23.922-13.379
				c19.586,1.568,20.678,15.812,20.678,15.812s10.946-4.864,18.244-0.405c7.299,4.461,9.326,9.326,9.326,9.326H1196.57z"/>
			<path fill="#FFFFFF" d="M1364.964,49.431c0,0,0.959-4.832,6.593-3.979c0,0,1.438-5.542,7.073-4.689
				c5.634,0.854,6.113,5.542,6.113,5.542s3.235-1.704,5.395-0.142c2.157,1.563,2.757,3.27,2.757,3.27h-27.931V49.431z"/>
			<path fill="#FFFFFF" d="M1490.894,74.091c0,0,1.875-9.447,12.892-7.779c0,0,2.813-10.838,13.829-9.17
				c11.016,1.668,11.953,10.836,11.953,10.836s6.327-3.334,10.547-0.277c4.219,3.056,5.391,6.391,5.391,6.391H1490.894z"/>
		</g>
		<g>
			<path fill="#93B9E9" d="M1049.991,212.739l-0.027,0.002c3.425-3.578,1.813-7.529,1.193-8.732
				c-0.001-0.002-0.003-0.004-0.005-0.006c-0.119-0.231-0.205-0.371-0.205-0.371l0.031,0.007c-0.992-1.956-1.563-4.162-1.563-6.507
				c0-3.984,1.615-7.59,4.225-10.2c2.397-3.175,0.582-7.396,0.582-7.396h0.006c-0.375-1.062-0.59-2.2-0.59-3.39
				c0-5.633,4.566-10.2,10.201-10.2c5.633,0,10.2,4.565,10.2,10.2c0,1.189-0.214,2.328-0.589,3.39h0.005
				c0,0-1.815,4.222,0.584,7.396c2.608,2.61,4.226,6.216,4.226,10.2c0,2.342-0.57,4.548-1.563,6.502l0.01-0.002
				c0,0-0.02,0.028-0.045,0.074c-0.081,0.158-0.163,0.317-0.25,0.475c-0.641,1.322-1.875,4.857,0.947,8.17
				c0.086,0.104,0.176,0.203,0.261,0.308c0.026,0.027,0.044,0.056,0.069,0.084l-0.008-0.001c2.44,3.041,3.908,6.896,3.908,11.1
				c0,9.808-7.951,17.757-17.757,17.757c-9.807,0-17.757-7.949-17.757-17.757C1046.083,219.636,1047.551,215.781,1049.991,212.739z"
				/>
			<path fill="#2D61BB" d="M1058.62,222.32l4.351,4.304v-15.119l-5.342-5.285c-0.277-0.272-0.279-0.719-0.006-0.996
				s0.721-0.279,0.997-0.006l4.351,4.303v-20.857c0-0.39,0.313-0.705,0.704-0.705c0.392,0,0.705,0.315,0.705,0.705v12.57
				l4.229-4.206c0.277-0.272,0.722-0.272,0.998,0.003c0.273,0.276,0.273,0.723-0.002,0.998l-5.226,5.193v15.186l4.675-4.722
				c0.273-0.277,0.719-0.279,0.998-0.006c0.276,0.273,0.279,0.721,0.006,0.997l-5.679,5.734v40.286c0,0.39-0.313,0.705-0.705,0.705
				c-0.391,0-0.704-0.315-0.704-0.705v-32.089l-5.342-5.285c-0.277-0.273-0.279-0.721-0.006-0.997
				C1057.896,222.048,1058.343,222.048,1058.62,222.32z"/>
			
				<path fill="none" stroke="#6AA3E6" stroke-width="1.8871" stroke-linecap="round" stroke-linejoin="round" stroke-miterlimit="10" d="
				M1052.912,261.1h15.592H1052.912z"/>
		</g>
		<g>
			<path fill="#93B9E9" d="M1090.99,236.476l-0.036,0.002c4.558-4.762,2.413-10.02,1.588-11.62
				c-0.002-0.003-0.003-0.006-0.005-0.009c-0.159-0.309-0.273-0.492-0.273-0.492l0.041,0.008c-1.32-2.604-2.08-5.539-2.08-8.658
				c0-5.302,2.148-10.1,5.621-13.572c3.191-4.227,0.776-9.842,0.776-9.842h0.007c-0.498-1.414-0.783-2.928-0.783-4.512
				c0-7.496,6.076-13.572,13.573-13.572c7.495,0,13.572,6.076,13.572,13.572c0,1.584-0.285,3.098-0.784,4.512h0.007
				c0,0-2.415,5.615,0.777,9.842c3.473,3.474,5.622,8.271,5.622,13.572c0,3.116-0.76,6.051-2.078,8.653l0.014-0.003
				c0,0-0.023,0.038-0.06,0.098c-0.108,0.213-0.218,0.424-0.333,0.631c-0.854,1.763-2.495,6.465,1.26,10.873
				c0.115,0.137,0.234,0.271,0.348,0.408c0.035,0.036,0.061,0.074,0.094,0.111l-0.01-0.001c3.246,4.047,5.198,9.177,5.198,14.771
				c0,13.049-10.579,23.627-23.627,23.627c-13.05,0-23.629-10.578-23.629-23.627C1085.79,245.653,1087.743,240.522,1090.99,236.476z
				"/>
			<path fill="#2D61BB" d="M1102.471,249.225l5.788,5.727v-20.12l-7.106-7.031c-0.368-0.363-0.373-0.957-0.008-1.326
				c0.364-0.369,0.959-0.371,1.326-0.008l5.788,5.726v-27.753c0-0.52,0.419-0.938,0.938-0.938c0.519,0,0.938,0.42,0.938,0.938
				v16.727l5.629-5.598c0.367-0.364,0.961-0.364,1.326,0.004s0.365,0.961-0.003,1.328l-6.952,6.911v20.207l6.223-6.284
				c0.363-0.369,0.957-0.372,1.326-0.008c0.368,0.365,0.373,0.959,0.008,1.328l-7.555,7.631v53.605c0,0.519-0.42,0.938-0.938,0.938
				s-0.938-0.421-0.938-0.938v-42.699l-7.107-7.031c-0.367-0.364-0.373-0.959-0.008-1.327
				C1101.509,248.862,1102.104,248.861,1102.471,249.225z"/>
			
				<path fill="none" stroke="#6AA3E6" stroke-width="1.8871" stroke-linecap="round" stroke-linejoin="round" stroke-miterlimit="10" d="
				M1094.876,300.826h20.747H1094.876z"/>
		</g>
		<g>
			<path fill="#93B9E9" d="M1565.991,323.739l-0.027,0.002c3.425-3.578,1.813-7.529,1.193-8.732
				c-0.001-0.002-0.003-0.004-0.005-0.006c-0.119-0.231-0.205-0.371-0.205-0.371l0.031,0.007c-0.992-1.956-1.563-4.162-1.563-6.507
				c0-3.984,1.615-7.59,4.225-10.2c2.397-3.175,0.582-7.396,0.582-7.396h0.006c-0.375-1.062-0.59-2.2-0.59-3.39
				c0-5.633,4.566-10.2,10.201-10.2c5.633,0,10.2,4.565,10.2,10.2c0,1.189-0.214,2.328-0.589,3.39h0.005
				c0,0-1.815,4.222,0.584,7.396c2.608,2.61,4.226,6.216,4.226,10.2c0,2.342-0.57,4.548-1.563,6.502l0.01-0.002
				c0,0-0.02,0.028-0.045,0.074c-0.081,0.158-0.163,0.317-0.25,0.475c-0.641,1.322-1.875,4.857,0.947,8.17
				c0.086,0.104,0.176,0.203,0.261,0.308c0.026,0.027,0.044,0.056,0.069,0.084l-0.008-0.001c2.44,3.041,3.908,6.896,3.908,11.1
				c0,9.808-7.951,17.757-17.757,17.757c-9.807,0-17.757-7.949-17.757-17.757C1562.083,330.636,1563.551,326.781,1565.991,323.739z"
				/>
			<path fill="#2D61BB" d="M1574.62,333.32l4.351,4.304v-15.119l-5.342-5.285c-0.277-0.272-0.279-0.719-0.006-0.996
				s0.721-0.279,0.997-0.006l4.351,4.303v-20.857c0-0.39,0.313-0.705,0.704-0.705c0.392,0,0.705,0.315,0.705,0.705v12.57
				l4.229-4.206c0.277-0.272,0.722-0.272,0.998,0.003c0.273,0.276,0.273,0.723-0.002,0.998l-5.226,5.193v15.186l4.675-4.722
				c0.273-0.277,0.719-0.279,0.998-0.006c0.276,0.273,0.279,0.721,0.006,0.997l-5.679,5.734v40.286c0,0.39-0.313,0.705-0.705,0.705
				c-0.391,0-0.704-0.315-0.704-0.705v-32.089l-5.342-5.285c-0.277-0.273-0.279-0.721-0.006-0.997
				C1573.896,333.048,1574.343,333.048,1574.62,333.32z"/>
			
				<path fill="none" stroke="#6AA3E6" stroke-width="1.8871" stroke-linecap="round" stroke-linejoin="round" stroke-miterlimit="10" d="
				M1568.912,372.1h15.592H1568.912z"/>
		</g>
		<g>
			<path fill="#93B9E9" d="M1606.99,347.476l-0.036,0.002c4.558-4.762,2.413-10.02,1.588-11.62
				c-0.002-0.003-0.003-0.006-0.005-0.009c-0.159-0.309-0.273-0.492-0.273-0.492l0.041,0.008c-1.32-2.604-2.08-5.539-2.08-8.658
				c0-5.302,2.148-10.1,5.621-13.572c3.191-4.227,0.776-9.842,0.776-9.842h0.007c-0.498-1.414-0.783-2.928-0.783-4.512
				c0-7.496,6.076-13.572,13.573-13.572c7.495,0,13.572,6.076,13.572,13.572c0,1.584-0.285,3.098-0.784,4.512h0.007
				c0,0-2.415,5.615,0.777,9.842c3.473,3.474,5.622,8.271,5.622,13.572c0,3.116-0.76,6.051-2.078,8.653l0.014-0.003
				c0,0-0.023,0.038-0.06,0.098c-0.108,0.213-0.218,0.424-0.333,0.631c-0.854,1.763-2.495,6.465,1.26,10.873
				c0.115,0.137,0.234,0.271,0.348,0.408c0.035,0.036,0.061,0.074,0.094,0.111l-0.01-0.001c3.246,4.047,5.198,9.177,5.198,14.771
				c0,13.049-10.579,23.627-23.627,23.627c-13.05,0-23.629-10.578-23.629-23.627C1601.79,356.653,1603.743,351.522,1606.99,347.476z
				"/>
			<path fill="#2D61BB" d="M1618.471,360.225l5.788,5.727v-20.12l-7.106-7.031c-0.368-0.363-0.373-0.957-0.008-1.326
				c0.364-0.369,0.959-0.371,1.326-0.008l5.788,5.726v-27.753c0-0.52,0.419-0.938,0.938-0.938c0.519,0,0.938,0.42,0.938,0.938
				v16.727l5.629-5.598c0.367-0.364,0.961-0.364,1.326,0.004s0.365,0.961-0.003,1.328l-6.952,6.911v20.207l6.223-6.284
				c0.363-0.369,0.957-0.372,1.326-0.008c0.368,0.365,0.373,0.959,0.008,1.328l-7.555,7.631v53.605c0,0.519-0.42,0.938-0.938,0.938
				s-0.938-0.421-0.938-0.938v-42.699l-7.107-7.031c-0.367-0.364-0.373-0.959-0.008-1.327
				C1617.509,359.862,1618.104,359.861,1618.471,360.225z"/>
			
				<path fill="none" stroke="#6AA3E6" stroke-width="1.8871" stroke-linecap="round" stroke-linejoin="round" stroke-miterlimit="10" d="
				M1610.876,411.826h20.747H1610.876z"/>
		</g>
	</g>
</g>
<g id="DESIGNED_BY_FREEPIK">
</g>
</svg>
